<svg aria-hidden="true" style="width:0;height:0;position:absolute;overflow:hidden" xmlns="http://www.w3.org/2000/svg"><defs><symbol id="phone" viewBox="0 0 32 32"><path d="M23 0H9C7.35 0 6 1.35 6 3v26c0 1.65 1.35 3 3 3h14c1.65 0 3-1.35 3-3V3c0-1.65-1.35-3-3-3zM12 1.5h8v1h-8v-1zM16 30a2 2 0 1 1-.001-3.999A2 2 0 0 1 16 30zm8-6H8V4h16v20z"/></symbol><symbol id="location" viewBox="0 0 32 32"><path d="M16 0C10.477 0 6 4.477 6 10c0 10 10 22 10 22s10-12 10-22c0-5.523-4.477-10-10-10zm0 16a6 6 0 1 1 0-12 6 6 0 0 1 0 12z"/></symbol><symbol id="mail" viewBox="0 0 43 32"><path d="M38.667 0H4C1.795 0 0 1.795 0 4v24c0 2.205 1.795 4 4 4h34.667c2.205 0 4-1.795 4-4V4c0-2.205-1.795-4-4-4zm0 2.667c.181 0 .355.037.512.104L21.334 18.238 3.489 2.771c.151-.065.327-.104.512-.104h34.667zm0 26.666H4A1.333 1.333 0 0 1 2.667 28V5.587l17.792 15.421c.233.203.539.327.875.327s.642-.124.876-.328l-.002.001L40 5.587V28c0 .736-.597 1.333-1.333 1.333z"/></symbol><symbol id="facebook" viewBox="0 0 32 32"><path fill="#fff" style="fill:var(--color1,#fff);stroke:var(--color1,#fff)" opacity=".05" stroke="#fff" stroke-width=".97" d="M30.739 15.612c0 8.355-6.773 15.127-15.127 15.127S.485 23.966.485 15.612C.485 7.257 7.258.485 15.612.485s15.127 6.773 15.127 15.127z"/><path fill="#fff" style="fill:var(--color2,#fff)" opacity=".8" d="M13.543 23.829v-7.711h-2.039v-2.776h2.039v-2.371c0-1.863 1.204-3.575 3.98-3.575 1.124 0 1.955.108 1.955.108l-.065 2.593s-.847-.008-1.772-.008c-1.001 0-1.161.461-1.161 1.227v2.027h3.013l-.131 2.776H16.48v7.711h-2.936z"/></symbol><symbol id="twitter" viewBox="0 0 32 32"><path fill="#fff" style="fill:var(--color1,#fff);stroke:var(--color1,#fff)" opacity=".05" stroke="#fff" stroke-width=".97" d="M30.933 15.612c0 8.355-6.773 15.127-15.127 15.127S.679 23.966.679 15.612C.679 7.257 7.452.485 15.806.485s15.127 6.773 15.127 15.127z"/><path fill="#fff" style="fill:var(--color2,#fff)" opacity=".8" d="M24.023 10.625a6.739 6.739 0 0 1-1.939.521 3.36 3.36 0 0 0 1.481-1.857 6.645 6.645 0 0 1-2.137.814 3.349 3.349 0 0 0-2.461-1.064 3.367 3.367 0 0 0-3.367 3.369c0 .261.032.521.083.772a9.57 9.57 0 0 1-6.944-3.525 3.343 3.343 0 0 0-.458 1.7c0 1.169.594 2.2 1.501 2.806a3.396 3.396 0 0 1-1.523-.429v.041a3.368 3.368 0 0 0 2.7 3.306c-.29.075-.588.114-.887.115-.219 0-.427-.022-.636-.051a3.373 3.373 0 0 0 3.148 2.336 6.746 6.746 0 0 1-4.181 1.44c-.282 0-.543-.01-.814-.041a9.536 9.536 0 0 0 5.172 1.511c6.194 0 9.583-5.131 9.583-9.585 0-.146 0-.292-.01-.438a7.258 7.258 0 0 0 1.689-1.742z"/></symbol><symbol id="instagram" viewBox="0 0 32 32"><path fill="#fff" style="fill:var(--color1,#fff);stroke:var(--color1,#fff)" opacity=".05" stroke="#fff" stroke-width=".97" d="M31.127 15.612c0 8.355-6.773 15.127-15.127 15.127S.873 23.966.873 15.612C.873 7.257 7.646.485 16 .485s15.127 6.773 15.127 15.127z"/><path fill="#fff" style="fill:var(--color2,#fff)" opacity=".8" d="M15.587 13.42c-1.433 0-2.603 1.17-2.603 2.603s1.17 2.603 2.603 2.603c1.433 0 2.603-1.17 2.603-2.603s-1.17-2.603-2.603-2.603zm7.808 2.603c0-1.078.01-2.146-.051-3.222-.061-1.25-.346-2.359-1.26-3.273-.916-.916-2.023-1.199-3.273-1.26-1.078-.061-2.146-.051-3.222-.051-1.078 0-2.146-.01-3.222.051-1.25.061-2.359.346-3.273 1.26-.916.916-1.199 2.023-1.26 3.273-.061 1.078-.051 2.146-.051 3.222s-.01 2.146.051 3.222c.061 1.25.346 2.359 1.26 3.273.916.916 2.023 1.199 3.273 1.26 1.078.061 2.146.051 3.222.051 1.078 0 2.146.01 3.222-.051 1.25-.061 2.359-.346 3.273-1.26.916-.916 1.199-2.023 1.26-3.273.063-1.076.051-2.144.051-3.222zm-7.808 4.005a4 4 0 0 1-4.005-4.005 4 4 0 0 1 4.005-4.005 4 4 0 0 1 4.005 4.005 4 4 0 0 1-4.005 4.005zm4.17-7.239a.934.934 0 1 1 .661-.273.932.932 0 0 1-.662.274z"/></symbol><symbol id="pinterest" viewBox="0 0 32 32"><path fill="#fff" style="fill:var(--color1,#fff);stroke:var(--color1,#fff)" opacity=".05" stroke="#fff" stroke-width=".97" d="M31.321 15.612c0 8.355-6.773 15.127-15.127 15.127S1.067 23.966 1.067 15.612C1.067 7.257 7.84.485 16.194.485s15.127 6.773 15.127 15.127z"/><path fill="#fff" style="fill:var(--color2,#fff)" opacity=".8" d="M9.621 13.29c0-.71.124-1.382.369-2.008a5.146 5.146 0 0 1 1.024-1.646 6.993 6.993 0 0 1 3.329-1.985 7.855 7.855 0 0 1 1.995-.257c1.04 0 2.008.22 2.906.658a5.504 5.504 0 0 1 2.184 1.912c.561.836.839 1.781.839 2.835 0 .632-.062 1.25-.189 1.855a7.59 7.59 0 0 1-.59 1.747 6.066 6.066 0 0 1-.988 1.477 4.3 4.3 0 0 1-1.432 1.017 4.527 4.527 0 0 1-1.868.381c-.447 0-.892-.105-1.332-.316s-.756-.499-.946-.868c-.067.257-.158.627-.279 1.112-.117.484-.195.796-.23.938-.036.141-.104.375-.203.7a4.717 4.717 0 0 1-.257.702l-.314.616a7.27 7.27 0 0 1-.455.765c-.165.239-.37.525-.614.854l-.136.048-.09-.099c-.098-1.035-.148-1.654-.148-1.858 0-.606.072-1.285.215-2.039.14-.753.361-1.7.658-2.839s.467-1.807.512-2.006c-.209-.426-.315-.984-.315-1.668 0-.547.171-1.059.513-1.542.343-.48.777-.72 1.303-.72.403 0 .715.133.939.401.225.267.334.603.334 1.013 0 .435-.144 1.064-.435 1.887s-.435 1.438-.435 1.847c0 .414.148.76.444 1.031.292.271.678.418 1.077.41.362 0 .697-.082 1.008-.247.307-.16.572-.39.775-.669a5.598 5.598 0 0 0 .929-2.032c.088-.385.155-.752.197-1.096.045-.346.064-.673.064-.984 0-1.139-.362-2.026-1.08-2.662-.722-.636-1.663-.952-2.82-.952-1.316 0-2.416.426-3.298 1.279-.882.851-1.326 1.933-1.326 3.246 0 .29.044.569.127.839.081.269.17.484.266.643.095.156.184.309.266.449s.125.241.125.301c0 .184-.048.425-.146.721-.101.297-.221.445-.365.445-.014 0-.07-.01-.169-.031a2.016 2.016 0 0 1-.894-.553 2.898 2.898 0 0 1-.602-.933 6.312 6.312 0 0 1-.321-1.068 4.495 4.495 0 0 1-.121-1.053z"/></symbol><symbol id="order" viewBox="0 0 32 32"><path fill="#fff" style="fill:var(--color1,#fff)" d="M2.581 28.376H16v-1.032H2.581a1.548 1.548 0 0 1-1.548-1.548V3.086c0-.855.693-1.548 1.548-1.548h22.71c.855 0 1.548.693 1.548 1.548v11.871h1.032V3.086A2.584 2.584 0 0 0 25.29.505H2.58A2.585 2.585 0 0 0-.001 3.086v22.71a2.584 2.584 0 0 0 2.581 2.581z"/><path fill="#fff" style="fill:var(--color1,#fff)" d="M2.065 2.57h1.032v1.032H2.065V2.57zM4.129 2.57h1.032v1.032H4.129V2.57zM6.194 2.57h1.032v1.032H6.194V2.57zM2.065 4.634h23.742v1.032H2.065V4.634zM7.377 6.85 6.066 8.161a2.587 2.587 0 0 0-3.259 3.989 2.588 2.588 0 0 0 3.989-3.259L8.107 7.58l-.73-.73zm-2.732 5.01a1.548 1.548 0 1 1 0-3.096c.23.001.457.054.663.155L4.28 9.947l.73.73 1.029-1.028c.101.206.154.433.155.663 0 .855-.693 1.548-1.548 1.548zM8.774 8.763h8.774v1.032H8.774V8.763zM8.774 10.828h3.613v1.032H8.774v-1.032zM13.419 10.828h7.226v1.032h-7.226v-1.032zM18.581 8.763h5.161v1.032h-5.161V8.763zM7.377 13.043l-1.311 1.311a2.587 2.587 0 0 0-3.259 3.989 2.588 2.588 0 0 0 3.989-3.259l1.311-1.311-.73-.73zm-2.732 5.01a1.548 1.548 0 1 1 0-3.097c.23.001.457.054.663.155L4.28 16.139l.73.73 1.029-1.028c.101.207.154.433.155.663 0 .855-.693 1.548-1.548 1.548zM8.774 14.957h8.774v1.032H8.774v-1.032zM8.774 17.021h3.613v1.032H8.774v-1.032zM13.419 17.021h4.129v1.032h-4.129v-1.032zM18.581 14.957h2.064v1.032h-2.064v-1.032zM7.377 19.237l-1.311 1.311a2.587 2.587 0 0 0-3.259 3.989 2.588 2.588 0 0 0 3.989-3.259l1.311-1.311-.73-.73zm-2.732 5.01a1.548 1.548 0 1 1 0-3.096c.23.001.457.054.663.155L4.28 22.334l.73.73 1.029-1.028c.101.207.154.433.155.663 0 .855-.693 1.548-1.548 1.548zM8.774 21.15h6.71v1.032h-6.71V21.15zM8.774 23.215h3.613v1.032H8.774v-1.032zM13.419 23.215h2.064v1.032h-2.064v-1.032zM24.258 31.473a7.742 7.742 0 1 0 0-15.484 7.742 7.742 0 0 0-7.742 7.742 7.75 7.75 0 0 0 7.742 7.742zm0-14.452a6.71 6.71 0 1 1-6.71 6.71 6.717 6.717 0 0 1 6.71-6.71z"/><path fill="#fff" style="fill:var(--color1,#fff)" d="m21.11 24.016-.924.461 1.032 2.065a.515.515 0 0 0 .824.135l6.193-6.194-.73-.73-5.687 5.687-.709-1.424z"/></symbol><symbol id="social" viewBox="0 0 36 32"><path fill="#fff" style="fill:var(--color1,#fff)" d="M30.119.002c-2.769 0-4.957 2.331-4.957 5.235s2.222 5.199 4.957 5.199 4.991-2.331 4.991-5.235S32.888.002 30.119.002zm0 9.286c-2.154 0-3.897-1.829-3.897-4.087S28 1.149 30.119 1.149c2.154 0 3.897 1.829 3.897 4.087s-1.744 4.052-3.897 4.052z"/><path fill="#fff" style="fill:var(--color1,#fff)" d="M31.692 6.025c-.034-.108-.034-.179-.103-.287-.034-.072-.068-.179-.137-.251s-.103-.143-.171-.215a.613.613 0 0 0-.239-.179c-.068-.072-.171-.108-.239-.143-.102-.036-.171-.108-.273-.143s-.205-.072-.273-.108c-.034 0-.103-.036-.137-.072s-.103-.036-.137-.072c-.034-.036-.103-.036-.137-.072l-.103-.108c-.034-.036-.068-.072-.068-.143-.034-.036-.034-.108-.034-.143V3.91c0-.036.034-.108.034-.143.034-.036.034-.108.068-.143l.103-.108a.257.257 0 0 1 .171-.072c.068-.036.103-.036.171-.036h.206c.035 0 .103 0 .171.036.068 0 .137.036.171.036s.103.036.137.036c.068 0 .103.036.137.036l.171.072.034-.215.068-.574v-.143l-.137-.036c-.034 0-.103-.036-.137-.036s-.068-.036-.137-.036c-.034 0-.103-.036-.171-.036s-.103-.036-.171-.036h-.034v-.681h-.82v.717h-.034c-.102.036-.205.072-.308.143-.103.036-.171.108-.239.179s-.137.143-.205.251c-.068.072-.103.179-.137.287l-.103.323c-.035.108-.034.251-.034.359 0 .108 0 .179.034.287s.034.179.103.287c.034.072.103.179.137.251.068.072.103.143.171.215s.137.143.239.179c.068.072.171.108.239.143.102.036.205.108.273.143.103.036.205.072.273.108.034 0 .103.036.137.072s.103.036.137.072c.034.036.068.072.102.072l.103.108c.035.036.034.072.068.143 0 .036.034.108.034.179v.179c0 .036-.034.108-.068.143l-.103.108c-.034.036-.068.072-.137.108-.034.036-.103.036-.137.072-.034 0-.102.036-.171.036H29.605c-.068 0-.137-.036-.171-.036-.068 0-.137-.036-.205-.072s-.137-.036-.205-.072c-.034 0-.068-.036-.103-.036s-.068-.036-.103-.036l-.205-.108-.034.251-.068.645v.108l.103.036c.137-.036.205 0 .308.036a.608.608 0 0 0 .239.072c.068.036.171.036.274.072s.171.036.273.036h.068v.717h.82v-.753h.034c.103-.036.205-.072.308-.143.102-.036.171-.108.273-.179.068-.072.137-.143.205-.251.068-.072.103-.179.171-.287l.103-.323c.035-.108.034-.215.034-.359 0-.108 0-.179-.034-.287zM27.726 11.117c-.171-.251-.547-.287-.786-.107l-5.538 4.625-7.145-3.119a.523.523 0 0 0-.513.072l-7.658 5.737a.592.592 0 0 0-.137.789.494.494 0 0 0 .444.251.534.534 0 0 0 .308-.108L14.12 13.7l7.179 3.119c.171.072.41.036.547-.072l5.778-4.805c.239-.179.274-.574.103-.825z"/><path fill="#fff" style="fill:var(--color1,#fff)" d="M35.726 30.765h-2.53V14.164c0-.323-.239-.574-.547-.574h-5.026c-.308 0-.547.251-.547.574v16.601H25.23V19.901c0-.323-.239-.574-.547-.574h-5.06c-.308 0-.547.251-.547.574v10.864H17.23V19.041c0-.323-.239-.574-.547-.574h-5.026c-.308 0-.547.251-.547.574v11.724H9.264v-8.354c0-.323-.239-.574-.547-.574h-5.06c-.308 0-.547.251-.547.574v8.354H.546c-.308 0-.547.251-.547.574s.239.574.547.574h35.145c.308 0 .547-.251.547-.574a.508.508 0 0 0-.513-.574zm-27.589 0H4.205v-7.78h3.932v7.78zm8 0h-3.932V19.614h3.932v11.151zm7.965 0h-3.931v-10.29h3.931v10.29zm8 0H28.17V14.738h3.932v16.027z"/></symbol><symbol id="crypto" viewBox="0 0 32 32"><path fill="#fff" style="fill:var(--color1,#fff)" d="M16 25.902a9.902 9.902 0 1 1 9.903-9.903 9.916 9.916 0 0 1-9.902 9.902zm0-18.896a9.002 9.002 0 0 0-8.31 5.552 8.99 8.99 0 0 0 6.554 12.262 8.99 8.99 0 0 0 9.232-3.825 8.997 8.997 0 0 0 1.516-4.997 9.007 9.007 0 0 0-8.994-8.994z"/><path fill="#fff" style="fill:var(--color1,#fff)" d="M16 23.555a7.56 7.56 0 0 1-6.981-4.664 7.558 7.558 0 0 1 5.507-10.302 7.548 7.548 0 0 1 7.756 3.213A7.558 7.558 0 0 1 23.555 16 7.564 7.564 0 0 1 16 23.555zm0-14.202a6.65 6.65 0 0 0-6.141 4.103 6.644 6.644 0 0 0 1.441 7.245 6.653 6.653 0 0 0 10.228-1.007 6.65 6.65 0 0 0 1.12-3.693 6.655 6.655 0 0 0-6.647-6.647z"/><path fill="#fff" style="fill:var(--color1,#fff)" d="M16.756 16.145h-2.309a.455.455 0 0 1-.454-.454v-3.712a.455.455 0 0 1 .454-.454h2.309a2.319 2.319 0 0 1 1.654.665 2.31 2.31 0 0 1-1.654 3.955zm-1.855-.908h1.855a1.407 1.407 0 0 0 1.007-.401 1.401 1.401 0 0 0-1.007-2.401h-1.855v2.804z"/><path fill="#fff" style="fill:var(--color1,#fff)" d="M17.346 19.859h-2.899a.455.455 0 0 1-.454-.454v-3.714a.455.455 0 0 1 .454-.454h2.899a2.31 2.31 0 0 1 2.311 2.311 2.31 2.31 0 0 1-2.311 2.311v.002zm-2.445-.908h2.445a1.401 1.401 0 0 0 0-2.804h-2.445v2.804zM14.447 12.433h-.663a.455.455 0 0 1 0-.908h.663a.455.455 0 0 1 0 .908z"/><path fill="#fff" style="fill:var(--color1,#fff)" d="M14.82 12.433a.455.455 0 0 1-.454-.454v-.835a.455.455 0 0 1 .908 0v.835a.455.455 0 0 1-.454.454zM16.265 12.433a.455.455 0 0 1-.454-.454v-.835a.455.455 0 0 1 .908 0v.835a.455.455 0 0 1-.454.454zM14.82 20.693a.455.455 0 0 1-.454-.454v-.833a.455.455 0 0 1 .908 0v.835a.454.454 0 0 1-.454.452zM16.265 20.693a.455.455 0 0 1-.454-.454v-.833a.455.455 0 0 1 .908 0v.835a.454.454 0 0 1-.454.452z"/><path fill="#fff" style="fill:var(--color1,#fff)" d="M14.447 19.86h-.663a.455.455 0 0 1 0-.908h.663a.455.455 0 0 1 0 .908zM16 7.006a.455.455 0 0 1-.454-.454V3.403a.455.455 0 0 1 .908 0v3.149a.455.455 0 0 1-.454.454z"/><path fill="#fff" style="fill:var(--color1,#fff)" d="M16 3.857a1.872 1.872 0 0 1-1.838-2.24A1.872 1.872 0 0 1 16.718.251a1.878 1.878 0 0 1 1.157 1.731A1.878 1.878 0 0 1 16 3.857zm0-2.841a.969.969 0 0 0-.948 1.155A.966.966 0 1 0 16 1.016zM16 29.051a.455.455 0 0 1-.454-.454v-3.149a.455.455 0 0 1 .908 0v3.149a.455.455 0 0 1-.454.454z"/><path fill="#fff" style="fill:var(--color1,#fff)" d="M16 31.892a1.872 1.872 0 0 1-1.838-2.24 1.872 1.872 0 0 1 2.556-1.366A1.873 1.873 0 0 1 16 31.892zm0-2.841a.969.969 0 0 0-.948 1.155.966.966 0 1 0 .948-1.155zM28.597 16.454h-3.149a.455.455 0 0 1 0-.908h3.149a.455.455 0 0 1 0 .908z"/><path fill="#fff" style="fill:var(--color1,#fff)" d="M30.017 17.874a1.872 1.872 0 0 1-1.838-2.24 1.872 1.872 0 0 1 2.556-1.366 1.878 1.878 0 0 1 1.157 1.731 1.878 1.878 0 0 1-1.875 1.875zm0-2.84a.969.969 0 0 0-.948 1.155.966.966 0 1 0 .948-1.155zM6.552 16.454H3.403a.455.455 0 0 1 0-.908h3.149a.455.455 0 0 1 0 .908z"/><path fill="#fff" style="fill:var(--color1,#fff)" d="M1.982 17.874a1.872 1.872 0 0 1-1.838-2.24A1.872 1.872 0 0 1 2.7 14.268a1.873 1.873 0 0 1-.718 3.606zm0-2.84a.969.969 0 0 0-.948 1.155.966.966 0 1 0 .948-1.155zM8.145 26.955H4.52a.455.455 0 0 1 0-.908h3.375l1.816-2.913c.064-.102.165-.175.283-.203s.241-.007.343.057c.102.064.175.165.203.283s.007.241-.057.343l-1.949 3.127a.453.453 0 0 1-.389.214z"/><path fill="#fff" style="fill:var(--color1,#fff)" d="M3.1 28.376a1.872 1.872 0 0 1-1.837-2.24 1.88 1.88 0 0 1 1.473-1.473 1.876 1.876 0 0 1 2.24 1.838 1.877 1.877 0 0 1-1.875 1.874zm0-2.841a.969.969 0 0 0-.948 1.155.96.96 0 0 0 .76.759.968.968 0 0 0 .872-1.631.967.967 0 0 0-.683-.283zM10.097 9.08c-.077 0-.153-.02-.221-.057s-.124-.091-.165-.157L7.895 5.953H4.52a.455.455 0 0 1 0-.908h3.625a.456.456 0 0 1 .385.214l1.949 3.127a.46.46 0 0 1 .013.459.452.452 0 0 1-.394.235z"/><path fill="#fff" style="fill:var(--color1,#fff)" d="M3.1 7.373a1.872 1.872 0 0 1-1.837-2.24 1.872 1.872 0 0 1 2.556-1.366 1.878 1.878 0 0 1 1.157 1.731 1.877 1.877 0 0 1-1.875 1.874zm0-2.841a.969.969 0 0 0-.948 1.155.96.96 0 0 0 .76.759.968.968 0 0 0 .872-1.631.967.967 0 0 0-.683-.283zM27.48 26.955h-3.625a.456.456 0 0 1-.385-.214l-1.951-3.127a.454.454 0 1 1 .772-.481l1.816 2.913h3.375a.455.455 0 0 1 0 .908h-.002z"/><path fill="#fff" style="fill:var(--color1,#fff)" d="M28.9 28.376a1.872 1.872 0 0 1-1.838-2.24 1.872 1.872 0 0 1 2.556-1.366 1.878 1.878 0 0 1 1.157 1.731 1.878 1.878 0 0 1-1.875 1.875zm0-2.841a.969.969 0 0 0-.948 1.155.966.966 0 1 0 .948-1.155zM21.903 9.08a.455.455 0 0 1-.385-.695l1.949-3.127a.446.446 0 0 1 .385-.214h3.627a.455.455 0 0 1 0 .908h-3.374l-1.816 2.913a.451.451 0 0 1-.386.214z"/><path fill="#fff" style="fill:var(--color1,#fff)" d="M28.9 7.373a1.872 1.872 0 0 1-1.838-2.24 1.872 1.872 0 0 1 2.556-1.366 1.878 1.878 0 0 1 1.157 1.731A1.878 1.878 0 0 1 28.9 7.373zm0-2.841a.969.969 0 0 0-.948 1.155.966.966 0 1 0 .948-1.155z"/></symbol><symbol id="smart" viewBox="0 0 33 32"><path fill="#fff" style="fill:var(--color1,#fff)" d="M20.485 26.57c.838 0 1.52-.682 1.52-1.52s-.682-1.52-1.52-1.52c-.66 0-1.217.425-1.427 1.013h-2.12v-3.039h2.12c.21.588.767 1.013 1.427 1.013.838 0 1.52-.682 1.52-1.52s-.682-1.52-1.52-1.52c-.66 0-1.217.425-1.427 1.013h-2.12v-3.039h2.12c.21.588.767 1.013 1.427 1.013.838 0 1.52-.682 1.52-1.52s-.682-1.52-1.52-1.52c-.66 0-1.217.425-1.427 1.013h-2.12v-1.013h-1.013v-2.12a1.518 1.518 0 0 0 1.013-1.427c0-.838-.682-1.52-1.52-1.52s-1.52.682-1.52 1.52c0 .66.425 1.217 1.013 1.427v2.12h-3.04v-2.12a1.518 1.518 0 0 0 1.013-1.427c0-.838-.682-1.52-1.52-1.52s-1.52.682-1.52 1.52c0 .66.425 1.217 1.013 1.427v2.12h-3.04v-2.12a1.518 1.518 0 0 0 1.013-1.427c0-.838-.682-1.52-1.52-1.52s-1.52.682-1.52 1.52c0 .66.425 1.217 1.013 1.427v2.12H5.79v1.013H3.67a1.518 1.518 0 0 0-1.427-1.013c-.838 0-1.52.682-1.52 1.52s.682 1.52 1.52 1.52c.66 0 1.217-.425 1.427-1.013h2.12v3.039H3.67a1.518 1.518 0 0 0-1.427-1.013c-.838 0-1.52.682-1.52 1.52s.682 1.52 1.52 1.52c.66 0 1.217-.425 1.427-1.013h2.12v3.039H3.67a1.518 1.518 0 0 0-1.427-1.013c-.838 0-1.52.682-1.52 1.52s.682 1.52 1.52 1.52c.66 0 1.217-.425 1.427-1.013h2.12v1.013h1.013v2.12a1.518 1.518 0 0 0-1.013 1.427c0 .838.682 1.52 1.52 1.52s1.52-.682 1.52-1.52c0-.66-.425-1.217-1.013-1.427v-2.12h3.04v2.12a1.518 1.518 0 0 0-1.013 1.427c0 .838.682 1.52 1.52 1.52s1.52-.682 1.52-1.52c0-.66-.425-1.217-1.013-1.427v-2.12h3.04v2.12a1.518 1.518 0 0 0-1.013 1.427c0 .838.682 1.52 1.52 1.52s1.52-.682 1.52-1.52c0-.66-.425-1.217-1.013-1.427v-2.12h1.013v-1.013h2.12c.21.588.767 1.013 1.427 1.013zm0-2.026a.507.507 0 1 1 0 1.014.507.507 0 0 1 0-1.014zm0-4.053a.507.507 0 1 1 0 1.014.507.507 0 0 1 0-1.014zm0-4.053a.507.507 0 1 1 0 1.014.507.507 0 0 1 0-1.014zM2.248 17.451a.507.507 0 1 1 0-1.014.507.507 0 0 1 0 1.014zm0 4.053a.507.507 0 1 1 0-1.014.507.507 0 0 1 0 1.014zm0 4.053a.507.507 0 1 1 0-1.014.507.507 0 0 1 0 1.014zm13.171-14.185a.507.507 0 1 1 0 1.014.507.507 0 0 1 0-1.014zm-4.052 0a.507.507 0 1 1 0 1.014.507.507 0 0 1 0-1.014zm-4.053 0a.507.507 0 1 1 0 1.014.507.507 0 0 1 0-1.014zm0 19.251a.507.507 0 1 1 0-1.014.507.507 0 0 1 0 1.014zm4.053 0a.507.507 0 1 1 0-1.014.507.507 0 0 1 0 1.014zm4.052 0a.507.507 0 1 1 0-1.014.507.507 0 0 1 0 1.014zm.507-5.066H6.807v-9.119h9.119v9.119z"/><path fill="#fff" style="fill:var(--color1,#fff)" d="M29.854 8.332v.001a8.037 8.037 0 0 0-.868-2.089l1.615-1.616-2.866-2.865-1.616 1.616a8.02 8.02 0 0 0-2.089-.869V.228h-4.053V2.51a8.065 8.065 0 0 0-2.089.868l-1.616-1.616-2.866 2.865 1.615 1.616a8.03 8.03 0 0 0-.868 2.089h-1.776v1.013h2.593l.082-.406a7.038 7.038 0 0 1 1.034-2.49l.229-.345-1.478-1.478 1.433-1.433 1.478 1.478.345-.228a6.987 6.987 0 0 1 2.49-1.034l.406-.082V1.24h2.026v2.087l.406.083c.888.18 1.725.528 2.49 1.034l.345.228 1.478-1.478 1.433 1.433-1.478 1.478.229.345a6.994 6.994 0 0 1 1.034 2.49l.083.406h2.086v2.026h-2.086l-.083.406a7.026 7.026 0 0 1-1.034 2.489l-.229.345 1.478 1.478-1.433 1.433-1.478-1.478-.345.228a6.994 6.994 0 0 1-2.49 1.034l-.406.083v2.593h1.013v-1.776a7.996 7.996 0 0 0 2.089-.868l1.616 1.615 2.866-2.866-1.615-1.616a8.03 8.03 0 0 0 .868-2.089h2.282V8.33h-2.282z"/><path fill="#fff" style="fill:var(--color1,#fff)" d="M22.005 14.412v1.013c2.793 0 5.066-2.273 5.066-5.066s-2.273-5.066-5.066-5.066a5.072 5.072 0 0 0-5.066 5.066h1.013c0-2.235 1.818-4.053 4.053-4.053s4.053 1.818 4.053 4.053a4.057 4.057 0 0 1-4.053 4.053zM14.913 17.451H7.821v1.013h7.092v-1.013zM14.913 23.531H13.9v1.013h1.013v-1.013zM12.886 23.531H7.82v1.013h5.066v-1.013zM19.371 30.328l.202.993a15.656 15.656 0 0 0 12.249-12.249l-.993-.202a14.638 14.638 0 0 1-11.457 11.457zM13.494 1.535l-.202-.993A15.656 15.656 0 0 0 1.043 12.791l.993.201A14.641 14.641 0 0 1 13.493 1.535z"/></symbol><symbol id="analyzer" viewBox="0 0 32 32"><path fill="#fff" style="fill:var(--color1,#fff)" d="M31.363 29.186H3.822l3.476-3.882c.305.162.653.255 1.022.255a2.19 2.19 0 0 0 1.949-1.199l3.551.9a2.196 2.196 0 0 0 2.181 2.013 2.2 2.2 0 0 0 1.42-3.869l2.896-6.948 2.062 5.279a2.196 2.196 0 0 0-.808 1.704c0 1.212.982 2.198 2.189 2.198a2.196 2.196 0 0 0 2.072-2.906l2.53-2.54c.249-.25.249-.655 0-.905s-.653-.25-.901 0l-2.386 2.396a2.17 2.17 0 0 0-1.515-.431l-2.536-6.491 2.547-6.112a2.193 2.193 0 0 0 2.305-1.627h4.013c.352 0 .637-.287.637-.64s-.285-.64-.637-.64h-4.061a2.194 2.194 0 0 0-2.069-1.48 2.196 2.196 0 0 0-1.371 3.909l-2.033 4.878-2.97-7.603c.446-.403.727-.986.727-1.635 0-1.212-.982-2.198-2.189-2.198a2.196 2.196 0 0 0-1.699 3.582l-5.255 7.993a2.17 2.17 0 0 0-1.473.006L2.982 7.23V.694c0-.353-.285-.64-.637-.64s-.637.287-.637.64v6.293H.639c-.352 0-.637.287-.637.64s.285.64.637.64h1.069v6.431H.639c-.352 0-.637.287-.637.64s.285.64.637.64h1.069v6.587H.639c-.352 0-.637.286-.637.64s.285.64.637.64h1.069v5.981c0 .353.285.64.637.64h5.492v.84c0 .353.285.64.637.64s.637-.287.637-.64v-.84h6.406v.84c0 .353.285.64.637.64s.637-.287.637-.64v-.84h6.562v.84c0 .353.285.64.637.64s.637-.287.637-.64v-.84h6.733c.352 0 .637-.287.637-.64s-.285-.64-.637-.64zm-7.604-6.665a.917.917 0 0 1 0 1.836.917.917 0 0 1 0-1.836zm0-16.981a.917.917 0 0 1 0 1.836.917.917 0 0 1 0-1.836zM8.319 24.279a.917.917 0 0 1 0-1.836.917.917 0 0 1 0 1.836zM16 25.992a.917.917 0 0 1 0-1.836.917.917 0 0 1 0 1.836zm-.078-23.1a.917.917 0 0 1 0 1.836.917.917 0 0 1 0-1.836zm-7.681 11.45a.917.917 0 0 1 0 1.836.917.917 0 0 1 0-1.836zM2.982 9.346l3.494 4.616a2.196 2.196 0 0 0 1.765 3.496 2.196 2.196 0 0 0 1.755-3.51l5.284-8.037a2.165 2.165 0 0 0 .946.075l3.421 8.758-3.396 8.148a2.188 2.188 0 0 0-2.164 1.116l-3.596-.912a2.196 2.196 0 0 0-2.173-1.933 2.196 2.196 0 0 0-1.928 3.238l-3.409 3.808V9.346z"/><path fill="#fff" style="fill:var(--color1,#fff)" d="M30.533 17.027a.636.636 0 0 0-.902 0l-.504.506a.642.642 0 0 0 .451 1.092.635.635 0 0 0 .451-.187l.504-.506a.642.642 0 0 0 0-.905z"/></symbol><symbol id="module" viewBox="0 0 32 32"><path fill="#fff" style="fill:var(--color1,#fff)" d="M18.095 5.664c-1.531-1.58-3.567-2.451-5.732-2.451s-4.201.87-5.732 2.451c-3.16 3.262-3.16 8.571 0 11.833 1.531 1.58 3.567 2.451 5.732 2.451s4.201-.87 5.732-2.451c1.531-1.58 2.374-3.682 2.374-5.917s-.843-4.336-2.374-5.917zm-10.81.674c1.357-1.4 3.16-2.172 5.079-2.172s3.722.771 5.079 2.172a7.442 7.442 0 0 1 2.005 4.01l-2.516 2.54a1.592 1.592 0 0 0-.806-.218c-.57 0-1.072.3-1.368.756l-3.698-1.198.001-.033c0-.936-.738-1.698-1.645-1.698s-1.645.762-1.645 1.698c0 .306.079.593.217.842l-1.94 2.076c-1.472-2.81-1.06-6.402 1.237-8.774zm9.563 8.029c0 .411-.324.745-.722.745s-.722-.334-.722-.745.324-.745.722-.745.722.334.722.745zm-6.71-2.173c0 .411-.324.745-.722.745s-.722-.334-.722-.745.324-.745.722-.745.722.334.722.745zm7.305 4.63c-1.357 1.4-3.16 2.172-5.079 2.172s-3.722-.771-5.079-2.172a7.315 7.315 0 0 1-.73-.882l2.098-2.245c.228.124.488.195.764.195.57 0 1.072-.3 1.368-.756l3.698 1.198-.001.033c0 .936.738 1.698 1.645 1.698s1.645-.762 1.645-1.698c0-.289-.07-.56-.194-.799l1.969-1.988c0 1.98-.747 3.842-2.104 5.243z"/><path fill="#fff" style="fill:var(--color1,#fff)" d="m8.276 6.72.606.719a5.202 5.202 0 0 1 5.238-1.033l.304-.9A6.104 6.104 0 0 0 8.277 6.72zM15.608 6.083l-.48.814c.244.154.479.33.697.523l.602-.723a6.322 6.322 0 0 0-.819-.615zM13.468 16.943a5.164 5.164 0 0 1-3.087-.275l-.343.885a6.058 6.058 0 0 0 3.621.323l-.19-.933z"/><path fill="#fff" style="fill:var(--color1,#fff)" d="m23.927 19.236-.67.692-1.663-1.835c1.968-2.97 2.442-6.685 1.421-10.014l1.319-1.332c.232.129.497.203.779.203.907 0 1.645-.762 1.645-1.698 0-.277-.065-.539-.18-.771l2.832-2.859V3.1h.923V.013h-2.99v.953h1.396l-2.795 2.821a1.6 1.6 0 0 0-.832-.234c-.907 0-1.645.762-1.645 1.698 0 .3.076.581.208.826l-1.011 1.021a11.504 11.504 0 0 0-2.397-3.679 10.946 10.946 0 0 0-15.811 0C.573 7.427.149 13.675 3.184 18.172l-.777.832a1.594 1.594 0 0 0-.764-.195c-.907 0-1.645.762-1.645 1.698s.738 1.698 1.645 1.698 1.645-.762 1.645-1.698c0-.306-.079-.593-.217-.842l.679-.727c.221.275.456.543.706.801 2.18 2.25 5.043 3.375 7.906 3.375 2.198 0 4.395-.664 6.284-1.99l1.667 1.839-.693.715 8.073 8.304 4.306-4.445-8.073-8.304zm1.187-14.728c.398 0 .722.334.722.745s-.324.745-.722.745c-.398 0-.722-.334-.722-.745s.324-.745.722-.745zM1.645 21.254c-.398 0-.722-.334-.722-.745s.324-.745.722-.745c.398 0 .722.334.722.745s-.324.745-.722.745zm3.466-2.186c-3.999-4.128-3.999-10.845 0-14.974 2-2.064 4.626-3.096 7.253-3.096s5.253 1.032 7.253 3.096c3.999 4.128 3.999 10.845 0 14.974s-10.506 4.128-14.506 0zm14.283 1.487a11.521 11.521 0 0 0 1.64-1.686l1.571 1.733-1.636 1.689-1.574-1.737zm8.299 10.084-6.765-6.959 3-3.097 6.765 6.959-3 3.097z"/><path fill="#fff" style="fill:var(--color1,#fff)" d="m23.928 21.966-1.321 1.364.653.674.668-.69 2.548 2.63.653-.674-3.201-3.304zM27.922 26.084l-.653.677.681.706.653-.677-.681-.706zM5.925 23.604h-.923v1.038h.923v-1.038zM5.925 29.424h-.923v1.038h.923v-1.038zM13.528 25.607h-.923v1.038h.923v-1.038zM26.759 17.036h-.923v1.038h.923v-1.038zM27.806 8.767h-.923v1.038h.923V8.767zM30.865 13.145h-.923v1.038h.923v-1.038z"/></symbol><symbol id="play" viewBox="0 0 32 32"><path fill="#fff" style="fill:var(--color1,#fff)" d="M16 0c8.837 0 16 7.163 16 16s-7.163 16-16 16S0 24.837 0 16 7.163 0 16 0zm0 3.2a12.8 12.8 0 1 0 0 25.602A12.8 12.8 0 0 0 16 3.2zm-2.394 5.018 9.6 6.4a1.603 1.603 0 0 1 .177 2.647l-9.776 6.518a1.598 1.598 0 0 1-2.191-.581 1.601 1.601 0 0 1-.215-.802V9.6a1.601 1.601 0 0 1 2.406-1.383z"/></symbol><symbol id="arrow-right" viewBox="0 0 32 32"><path fill="#fff" style="fill:var(--color1,#fff)" d="M17.495 8.391a1.333 1.333 0 0 0 0 1.886l4.389 4.391L8 14.677a1.334 1.334 0 0 0 0 2.668l13.885-.009-4.391 4.391a1.339 1.339 0 0 0-.308 1.465 1.332 1.332 0 0 0 2.194.421l4.781-4.78a3.996 3.996 0 0 0 1.172-2.829 4.006 4.006 0 0 0-1.172-2.829L19.38 8.394a1.333 1.333 0 0 0-1.886 0z"/></symbol><symbol fill="none" xmlns="http://www.w3.org/2000/svg" viewBox="0 0 15 15" id="tg"><path d="M9 14.667a.668.668 0 0 1-.597-.369l-1.978-3.957a.67.67 0 0 1 .048-.678l3.194-4.33-4.33 3.194a.67.67 0 0 1-.678.048L.702 6.597a.668.668 0 0 1 .067-1.222L13.436.708a.668.668 0 0 1 .856.856L9.625 14.231a.665.665 0 0 1-.625.436Z" fill="#fff"/></symbol></defs></svg>