<svg aria-hidden="true" style="position:absolute;width:0;height:0;overflow:hidden" xmlns="http://www.w3.org/2000/svg">
  <defs>
<symbol id="phone" viewBox="0 0 32 32">
<path  d="M23 0h-14c-1.65 0-3 1.35-3 3v26c0 1.65 1.35 3 3 3h14c1.65 0 3-1.35 3-3v-26c0-1.65-1.35-3-3-3zM12 1.5h8v1h-8v-1zM16 30c-1.105 0-2-0.895-2-2s0.895-2 2-2 2 0.895 2 2-0.895 2-2 2zM24 24h-16v-20h16v20z"></path>
</symbol>

<symbol id="location" viewBox="0 0 32 32">
<path d="M16 0c-5.523 0-10 4.477-10 10 0 10 10 22 10 22s10-12 10-22c0-5.523-4.477-10-10-10zM16 16c-3.314 0-6-2.686-6-6s2.686-6 6-6 6 2.686 6 6-2.686 6-6 6z"></path>
</symbol>

<symbol id="mail" viewBox="0 0 43 32">
      <path d="M38.667 0H4C1.795 0 0 1.795 0 4v24c0 2.205 1.795 4 4 4h34.667c2.205 0 4-1.795 4-4V4c0-2.205-1.795-4-4-4zm0 2.667c.181 0 .355.037.512.104L21.334 18.238 3.489 2.771c.151-.065.327-.104.512-.104h34.667zm0 26.666H4A1.333 1.333 0 0 1 2.667 28V5.587l17.792 15.421c.233.203.539.327.875.327s.642-.124.876-.328l-.002.001L40 5.587V28c0 .736-.597 1.333-1.333 1.333z"/>
    </symbol>

<symbol id="facebook" viewBox="0 0 32 32">
<path fill="#fff" style="fill: var(--color1, #fff); stroke: var(--color1, #fff)" opacity="0.05" stroke="#fff" stroke-linejoin="miter" stroke-linecap="butt" stroke-miterlimit="4" stroke-width="0.9697" d="M30.739 15.612c0 8.355-6.773 15.127-15.127 15.127s-15.127-6.773-15.127-15.127c0-8.355 6.773-15.127 15.127-15.127s15.127 6.773 15.127 15.127z"></path>
<path fill="#fff" style="fill: var(--color2, #fff)" opacity="0.8" d="M13.543 23.829v-7.711h-2.039v-2.776h2.039v-2.371c0-1.863 1.204-3.575 3.98-3.575 1.124 0 1.955 0.108 1.955 0.108l-0.065 2.593c0 0-0.847-0.008-1.772-0.008-1.001 0-1.161 0.461-1.161 1.227v2.027h3.013l-0.131 2.776h-2.882v7.711h-2.936z"></path>
</symbol>

<symbol id="twitter" viewBox="0 0 32 32">
<path fill="#fff" style="fill: var(--color1, #fff); stroke: var(--color1, #fff)" opacity="0.05" stroke="#fff" stroke-linejoin="miter" stroke-linecap="butt" stroke-miterlimit="4" stroke-width="0.9697" d="M30.933 15.612c0 8.355-6.773 15.127-15.127 15.127s-15.127-6.773-15.127-15.127c0-8.355 6.773-15.127 15.127-15.127s15.127 6.773 15.127 15.127z"></path>
<path fill="#fff" style="fill: var(--color2, #fff)" opacity="0.8" d="M24.023 10.625c-0.604 0.261-1.262 0.448-1.939 0.521 0.703-0.418 1.23-1.078 1.481-1.857-0.66 0.393-1.383 0.668-2.137 0.814-0.315-0.337-0.696-0.605-1.12-0.788s-0.88-0.277-1.341-0.276c-1.866 0-3.367 1.513-3.367 3.369 0 0.261 0.032 0.521 0.083 0.772-2.795-0.146-5.287-1.481-6.944-3.525-0.302 0.516-0.46 1.103-0.458 1.7 0 1.169 0.594 2.2 1.501 2.806-0.534-0.021-1.056-0.168-1.523-0.429v0.041c0 1.637 1.157 2.994 2.7 3.306-0.29 0.075-0.588 0.114-0.887 0.115-0.219 0-0.427-0.022-0.636-0.051 0.427 1.335 1.669 2.305 3.148 2.336-1.157 0.907-2.607 1.44-4.181 1.44-0.282 0-0.543-0.010-0.814-0.041 1.493 0.958 3.265 1.511 5.172 1.511 6.194 0 9.583-5.131 9.583-9.585 0-0.146 0-0.292-0.010-0.438 0.656-0.48 1.23-1.074 1.689-1.742z"></path>
</symbol>

<symbol id="instagram" viewBox="0 0 32 32">
<path fill="#fff" style="fill: var(--color1, #fff); stroke: var(--color1, #fff)" opacity="0.05" stroke="#fff" stroke-linejoin="miter" stroke-linecap="butt" stroke-miterlimit="4" stroke-width="0.9697" d="M31.127 15.612c0 8.355-6.773 15.127-15.127 15.127s-15.127-6.773-15.127-15.127c0-8.355 6.773-15.127 15.127-15.127s15.127 6.773 15.127 15.127z"></path>
<path fill="#fff" style="fill: var(--color2, #fff)" opacity="0.8" d="M15.587 13.42c-1.433 0-2.603 1.17-2.603 2.603s1.17 2.603 2.603 2.603c1.433 0 2.603-1.17 2.603-2.603s-1.17-2.603-2.603-2.603zM23.395 16.023c0-1.078 0.010-2.146-0.051-3.222-0.061-1.25-0.346-2.359-1.26-3.273-0.916-0.916-2.023-1.199-3.273-1.26-1.078-0.061-2.146-0.051-3.222-0.051-1.078 0-2.146-0.010-3.222 0.051-1.25 0.061-2.359 0.346-3.273 1.26-0.916 0.916-1.199 2.023-1.26 3.273-0.061 1.078-0.051 2.146-0.051 3.222s-0.010 2.146 0.051 3.222c0.061 1.25 0.346 2.359 1.26 3.273 0.916 0.916 2.023 1.199 3.273 1.26 1.078 0.061 2.146 0.051 3.222 0.051 1.078 0 2.146 0.010 3.222-0.051 1.25-0.061 2.359-0.346 3.273-1.26 0.916-0.916 1.199-2.023 1.26-3.273 0.063-1.076 0.051-2.144 0.051-3.222zM15.587 20.028c-2.216 0-4.005-1.789-4.005-4.005s1.789-4.005 4.005-4.005 4.005 1.789 4.005 4.005c0 2.216-1.789 4.005-4.005 4.005zM19.757 12.789c-0.518 0-0.935-0.418-0.935-0.935s0.418-0.935 0.935-0.935c0.517 0 0.935 0.418 0.935 0.935 0 0.123-0.024 0.245-0.071 0.358s-0.116 0.217-0.203 0.304c-0.087 0.087-0.19 0.156-0.304 0.203s-0.235 0.071-0.358 0.071z"></path>
</symbol>

<symbol id="pinterest" viewBox="0 0 32 32">
<path fill="#fff" style="fill: var(--color1, #fff); stroke: var(--color1, #fff)" opacity="0.05" stroke="#fff" stroke-linejoin="miter" stroke-linecap="butt" stroke-miterlimit="4" stroke-width="0.9697" d="M31.321 15.612c0 8.355-6.773 15.127-15.127 15.127s-15.127-6.773-15.127-15.127c0-8.355 6.773-15.127 15.127-15.127s15.127 6.773 15.127 15.127z"></path>
<path fill="#fff" style="fill: var(--color2, #fff)" opacity="0.8" d="M9.621 13.29c0-0.71 0.124-1.382 0.369-2.008 0.234-0.608 0.581-1.167 1.024-1.646 0.442-0.472 0.947-0.881 1.501-1.214 0.569-0.344 1.185-0.604 1.828-0.771 0.651-0.171 1.322-0.257 1.995-0.257 1.040 0 2.008 0.22 2.906 0.658 0.886 0.43 1.64 1.091 2.184 1.912 0.561 0.836 0.839 1.781 0.839 2.835 0 0.632-0.062 1.25-0.189 1.855-0.125 0.604-0.323 1.191-0.59 1.747-0.255 0.538-0.588 1.036-0.988 1.477-0.402 0.434-0.89 0.78-1.432 1.017-0.588 0.258-1.225 0.388-1.868 0.381-0.447 0-0.892-0.105-1.332-0.316s-0.756-0.499-0.946-0.868c-0.067 0.257-0.158 0.627-0.279 1.112-0.117 0.484-0.195 0.796-0.23 0.938-0.036 0.141-0.104 0.375-0.203 0.7-0.067 0.241-0.153 0.475-0.257 0.702l-0.314 0.616c-0.136 0.264-0.288 0.52-0.455 0.765-0.165 0.239-0.37 0.525-0.614 0.854l-0.136 0.048-0.090-0.099c-0.098-1.035-0.148-1.654-0.148-1.858 0-0.606 0.072-1.285 0.215-2.039 0.14-0.753 0.361-1.7 0.658-2.839s0.467-1.807 0.512-2.006c-0.209-0.426-0.315-0.984-0.315-1.668 0-0.547 0.171-1.059 0.513-1.542 0.343-0.48 0.777-0.72 1.303-0.72 0.403 0 0.715 0.133 0.939 0.401 0.225 0.267 0.334 0.603 0.334 1.013 0 0.435-0.144 1.064-0.435 1.887s-0.435 1.438-0.435 1.847c0 0.414 0.148 0.76 0.444 1.031 0.292 0.271 0.678 0.418 1.077 0.41 0.362 0 0.697-0.082 1.008-0.247 0.307-0.16 0.572-0.39 0.775-0.669 0.443-0.608 0.759-1.299 0.929-2.032 0.088-0.385 0.155-0.752 0.197-1.096 0.045-0.346 0.064-0.673 0.064-0.984 0-1.139-0.362-2.026-1.080-2.662-0.722-0.636-1.663-0.952-2.82-0.952-1.316 0-2.416 0.426-3.298 1.279-0.882 0.851-1.326 1.933-1.326 3.246 0 0.29 0.044 0.569 0.127 0.839 0.081 0.269 0.17 0.484 0.266 0.643 0.095 0.156 0.184 0.309 0.266 0.449s0.125 0.241 0.125 0.301c0 0.184-0.048 0.425-0.146 0.721-0.101 0.297-0.221 0.445-0.365 0.445-0.014 0-0.070-0.010-0.169-0.031-0.342-0.102-0.65-0.293-0.894-0.553-0.259-0.269-0.463-0.586-0.602-0.933-0.138-0.346-0.246-0.703-0.321-1.068-0.082-0.345-0.122-0.698-0.121-1.053z"></path>
</symbol>

<symbol id="order" viewBox="0 0 32 32">
<path fill="#fff" style="fill: var(--color1, #fff)" d="M2.581 28.376h13.419v-1.032h-13.419c-0.855 0-1.548-0.693-1.548-1.548v-22.71c0-0.855 0.693-1.548 1.548-1.548h22.71c0.855 0 1.548 0.693 1.548 1.548v11.871h1.032v-11.871c-0.002-1.425-1.156-2.579-2.581-2.581h-22.71c-1.424 0.002-2.579 1.156-2.581 2.581v22.71c0.002 1.425 1.156 2.579 2.581 2.581z"></path>
<path fill="#fff" style="fill: var(--color1, #fff)" d="M2.065 2.57h1.032v1.032h-1.032v-1.032z"></path>
<path fill="#fff" style="fill: var(--color1, #fff)" d="M4.129 2.57h1.032v1.032h-1.032v-1.032z"></path>
<path fill="#fff" style="fill: var(--color1, #fff)" d="M6.194 2.57h1.032v1.032h-1.032v-1.032z"></path>
<path fill="#fff" style="fill: var(--color1, #fff)" d="M2.065 4.634h23.742v1.032h-23.742v-1.032z"></path>
<path fill="#fff" style="fill: var(--color1, #fff)" d="M7.377 6.85l-1.311 1.311c-1.108-0.734-2.592-0.509-3.433 0.521s-0.765 2.528 0.174 3.468c0.94 0.94 2.439 1.015 3.468 0.174s1.254-2.325 0.521-3.433l1.311-1.311-0.73-0.73zM4.645 11.86c-0.855 0-1.548-0.693-1.548-1.548s0.693-1.548 1.548-1.548c0.23 0.001 0.457 0.054 0.663 0.155l-1.028 1.028 0.73 0.73 1.029-1.028c0.101 0.206 0.154 0.433 0.155 0.663 0 0.855-0.693 1.548-1.548 1.548z"></path>
<path fill="#fff" style="fill: var(--color1, #fff)" d="M8.774 8.763h8.774v1.032h-8.774v-1.032z"></path>
<path fill="#fff" style="fill: var(--color1, #fff)" d="M8.774 10.828h3.613v1.032h-3.613v-1.032z"></path>
<path fill="#fff" style="fill: var(--color1, #fff)" d="M13.419 10.828h7.226v1.032h-7.226v-1.032z"></path>
<path fill="#fff" style="fill: var(--color1, #fff)" d="M18.581 8.763h5.161v1.032h-5.161v-1.032z"></path>
<path fill="#fff" style="fill: var(--color1, #fff)" d="M7.377 13.043l-1.311 1.311c-1.108-0.734-2.592-0.509-3.433 0.521s-0.765 2.528 0.174 3.468c0.94 0.94 2.439 1.015 3.468 0.174s1.254-2.325 0.521-3.433l1.311-1.311-0.73-0.73zM4.645 18.053c-0.855 0-1.548-0.693-1.548-1.548s0.693-1.549 1.548-1.549c0.23 0.001 0.457 0.054 0.663 0.155l-1.028 1.028 0.73 0.73 1.029-1.028c0.101 0.207 0.154 0.433 0.155 0.663 0 0.855-0.693 1.548-1.548 1.548z"></path>
<path fill="#fff" style="fill: var(--color1, #fff)" d="M8.774 14.957h8.774v1.032h-8.774v-1.032z"></path>
<path fill="#fff" style="fill: var(--color1, #fff)" d="M8.774 17.021h3.613v1.032h-3.613v-1.032z"></path>
<path fill="#fff" style="fill: var(--color1, #fff)" d="M13.419 17.021h4.129v1.032h-4.129v-1.032z"></path>
<path fill="#fff" style="fill: var(--color1, #fff)" d="M18.581 14.957h2.064v1.032h-2.064v-1.032z"></path>
<path fill="#fff" style="fill: var(--color1, #fff)" d="M7.377 19.237l-1.311 1.311c-1.108-0.734-2.592-0.509-3.433 0.521s-0.765 2.528 0.174 3.468c0.94 0.94 2.439 1.015 3.468 0.174s1.254-2.325 0.521-3.433l1.311-1.311-0.73-0.73zM4.645 24.247c-0.855 0-1.548-0.693-1.548-1.548s0.693-1.548 1.548-1.548c0.23 0.001 0.457 0.054 0.663 0.155l-1.028 1.028 0.73 0.73 1.029-1.028c0.101 0.207 0.154 0.433 0.155 0.663 0 0.855-0.693 1.548-1.548 1.548z"></path>
<path fill="#fff" style="fill: var(--color1, #fff)" d="M8.774 21.15h6.71v1.032h-6.71v-1.032z"></path>
<path fill="#fff" style="fill: var(--color1, #fff)" d="M8.774 23.215h3.613v1.032h-3.613v-1.032z"></path>
<path fill="#fff" style="fill: var(--color1, #fff)" d="M13.419 23.215h2.064v1.032h-2.064v-1.032z"></path>
<path fill="#fff" style="fill: var(--color1, #fff)" d="M24.258 31.473c4.276 0 7.742-3.466 7.742-7.742s-3.466-7.742-7.742-7.742c-4.276 0-7.742 3.466-7.742 7.742 0.005 4.274 3.468 7.737 7.742 7.742zM24.258 17.021c3.705 0 6.71 3.004 6.71 6.71s-3.004 6.71-6.71 6.71c-3.706 0-6.71-3.004-6.71-6.71 0.004-3.704 3.006-6.706 6.71-6.71z"></path>
<path fill="#fff" style="fill: var(--color1, #fff)" d="M21.11 24.016l-0.924 0.461 1.032 2.065c0.074 0.149 0.215 0.252 0.379 0.279 0.027 0.004 0.053 0.006 0.080 0.007 0.137 0 0.268-0.054 0.365-0.151l6.193-6.194-0.73-0.73-5.687 5.687-0.709-1.424z"></path>
</symbol>

<symbol id="social" viewBox="0 0 36 32">
<path fill="#fff" style="fill: var(--color1, #fff)" d="M30.119 0.002c-2.769 0-4.957 2.331-4.957 5.235s2.222 5.199 4.957 5.199c2.735 0 4.991-2.331 4.991-5.235s-2.222-5.199-4.991-5.199zM30.119 9.288c-2.154 0-3.897-1.829-3.897-4.087s1.778-4.052 3.897-4.052c2.154 0 3.897 1.829 3.897 4.087s-1.744 4.052-3.897 4.052z"></path>
<path fill="#fff" style="fill: var(--color1, #fff)" d="M31.692 6.025c-0.034-0.108-0.034-0.179-0.103-0.287-0.034-0.072-0.068-0.179-0.137-0.251s-0.103-0.143-0.171-0.215c-0.068-0.072-0.137-0.143-0.239-0.179-0.068-0.072-0.171-0.108-0.239-0.143-0.102-0.036-0.171-0.108-0.273-0.143s-0.205-0.072-0.273-0.108c-0.034 0-0.103-0.036-0.137-0.072s-0.103-0.036-0.137-0.072c-0.034-0.036-0.103-0.036-0.137-0.072s-0.068-0.072-0.103-0.108c-0.034-0.036-0.068-0.072-0.068-0.143-0.034-0.036-0.034-0.108-0.034-0.143 0-0.072 0-0.108 0-0.179 0-0.036 0.034-0.108 0.034-0.143 0.034-0.036 0.034-0.108 0.068-0.143s0.068-0.072 0.103-0.108 0.103-0.072 0.171-0.072c0.068-0.036 0.103-0.036 0.171-0.036 0.034 0 0.068 0 0.103 0s0.068 0 0.103 0 0.103 0 0.171 0.036c0.068 0 0.137 0.036 0.171 0.036s0.103 0.036 0.137 0.036c0.068 0 0.103 0.036 0.137 0.036l0.171 0.072 0.034-0.215 0.068-0.574v-0.143l-0.137-0.036c-0.034 0-0.103-0.036-0.137-0.036s-0.068-0.036-0.137-0.036c-0.034 0-0.103-0.036-0.171-0.036s-0.103-0.036-0.171-0.036h-0.034v-0.681h-0.82v0.717h-0.034c-0.102 0.036-0.205 0.072-0.308 0.143-0.103 0.036-0.171 0.108-0.239 0.179s-0.137 0.143-0.205 0.251c-0.068 0.072-0.103 0.179-0.137 0.287s-0.068 0.215-0.103 0.323-0.034 0.251-0.034 0.359c0 0.108 0 0.179 0.034 0.287s0.034 0.179 0.103 0.287c0.034 0.072 0.103 0.179 0.137 0.251 0.068 0.072 0.103 0.143 0.171 0.215s0.137 0.143 0.239 0.179c0.068 0.072 0.171 0.108 0.239 0.143 0.102 0.036 0.205 0.108 0.273 0.143 0.103 0.036 0.205 0.072 0.273 0.108 0.034 0 0.103 0.036 0.137 0.072s0.103 0.036 0.137 0.072c0.034 0.036 0.068 0.072 0.102 0.072 0.034 0.036 0.068 0.072 0.103 0.108s0.034 0.072 0.068 0.143c0 0.036 0.034 0.108 0.034 0.179s0 0.108 0 0.179c0 0.036-0.034 0.108-0.068 0.143s-0.068 0.072-0.103 0.108c-0.034 0.036-0.068 0.072-0.137 0.108-0.034 0.036-0.103 0.036-0.137 0.072-0.034 0-0.102 0.036-0.171 0.036-0.034 0-0.068 0-0.137 0-0.034 0-0.103 0-0.137 0-0.068 0-0.137 0-0.171 0-0.068 0-0.137-0.036-0.171-0.036-0.068 0-0.137-0.036-0.205-0.072s-0.137-0.036-0.205-0.072c-0.034 0-0.068-0.036-0.103-0.036s-0.068-0.036-0.103-0.036l-0.205-0.108-0.034 0.251-0.068 0.645v0.108l0.103 0.036c0.137-0.036 0.205 0 0.308 0.036 0.068 0.036 0.171 0.072 0.239 0.072 0.068 0.036 0.171 0.036 0.274 0.072s0.171 0.036 0.273 0.036h0.068v0.717h0.82v-0.753h0.034c0.103-0.036 0.205-0.072 0.308-0.143 0.102-0.036 0.171-0.108 0.273-0.179 0.068-0.072 0.137-0.143 0.205-0.251 0.068-0.072 0.103-0.179 0.171-0.287 0.034-0.108 0.068-0.215 0.103-0.323s0.034-0.215 0.034-0.359c0-0.108 0-0.179-0.034-0.287z"></path>
<path fill="#fff" style="fill: var(--color1, #fff)" d="M27.726 11.117c-0.171-0.251-0.547-0.287-0.786-0.107l-5.538 4.625-7.145-3.119c-0.171-0.072-0.376-0.036-0.513 0.072l-7.658 5.737c-0.239 0.179-0.308 0.538-0.137 0.789 0.103 0.179 0.274 0.251 0.444 0.251 0.103 0 0.205-0.036 0.308-0.108l7.419-5.557 7.179 3.119c0.171 0.072 0.41 0.036 0.547-0.072l5.778-4.805c0.239-0.179 0.274-0.574 0.103-0.825z"></path>
<path fill="#fff" style="fill: var(--color1, #fff)" d="M35.726 30.765h-2.53v-16.601c0-0.323-0.239-0.574-0.547-0.574h-5.026c-0.308 0-0.547 0.251-0.547 0.574v16.601h-1.846v-10.864c0-0.323-0.239-0.574-0.547-0.574h-5.060c-0.308 0-0.547 0.251-0.547 0.574v10.864h-1.846v-11.724c0-0.323-0.239-0.574-0.547-0.574h-5.026c-0.308 0-0.547 0.251-0.547 0.574v11.724h-1.846v-8.354c0-0.323-0.239-0.574-0.547-0.574h-5.060c-0.308 0-0.547 0.251-0.547 0.574v8.354h-2.564c-0.308 0-0.547 0.251-0.547 0.574s0.239 0.574 0.547 0.574h35.145c0.308 0 0.547-0.251 0.547-0.574 0.034-0.323-0.205-0.574-0.513-0.574zM8.137 30.765h-3.932v-7.78h3.932v7.78zM16.137 30.765h-3.932v-11.151h3.932v11.151zM24.102 30.765h-3.931v-10.29h3.931v10.29zM32.102 30.765h-3.932v-16.027h3.932v16.027z"></path>
</symbol>

<symbol id="crypto" viewBox="0 0 32 32">
<path fill="#fff" style="fill: var(--color1, #fff)" d="M16 25.902c-1.958 0-3.873-0.581-5.501-1.669s-2.898-2.635-3.647-4.444-0.946-3.8-0.563-5.721c0.382-1.921 1.325-3.685 2.71-5.070s3.149-2.328 5.070-2.71 3.912-0.186 5.721 0.563c1.809 0.749 3.356 2.019 4.444 3.647s1.669 3.543 1.669 5.501c-0.003 2.625-1.047 5.142-2.904 6.998s-4.373 2.901-6.998 2.904zM16 7.006c-1.779 0-3.518 0.527-4.997 1.516s-2.632 2.393-3.313 4.036c-0.681 1.643-0.859 3.452-0.512 5.196s1.204 3.347 2.461 4.605c1.258 1.258 2.86 2.114 4.605 2.461s3.553 0.169 5.196-0.512 3.048-1.834 4.036-3.313c0.988-1.479 1.516-3.218 1.516-4.997-0.003-2.384-0.951-4.671-2.637-6.357s-3.972-2.635-6.357-2.637z"></path>
<path fill="#fff" style="fill: var(--color1, #fff)" d="M16 23.555c-1.494 0-2.955-0.443-4.198-1.273s-2.211-2.010-2.783-3.391c-0.572-1.381-0.721-2.9-0.43-4.365s1.011-2.812 2.068-3.869c1.057-1.057 2.403-1.776 3.869-2.068s2.985-0.142 4.365 0.43c1.381 0.572 2.561 1.54 3.391 2.783s1.273 2.703 1.273 4.198c-0.002 2.003-0.799 3.924-2.215 5.34s-3.337 2.213-5.34 2.215zM16 9.353c-1.315 0-2.6 0.39-3.693 1.12s-1.945 1.769-2.448 2.983-0.635 2.551-0.378 3.841c0.256 1.29 0.89 2.474 1.819 3.404s2.114 1.563 3.404 1.819c1.29 0.256 2.626 0.125 3.841-0.378s2.253-1.355 2.983-2.448c0.73-1.093 1.12-2.378 1.12-3.693-0.002-1.762-0.703-3.452-1.949-4.698s-2.936-1.947-4.698-1.949z"></path>
<path fill="#fff" style="fill: var(--color1, #fff)" d="M16.756 16.145h-2.309c-0.12 0-0.236-0.048-0.321-0.133s-0.133-0.201-0.133-0.321v-3.712c0-0.12 0.048-0.236 0.133-0.321s0.201-0.133 0.321-0.133h2.309c0.306-0.004 0.61 0.052 0.894 0.166s0.543 0.284 0.76 0.499c0.218 0.215 0.391 0.471 0.509 0.753s0.179 0.585 0.179 0.892c0 0.306-0.061 0.609-0.179 0.892s-0.291 0.538-0.509 0.753c-0.218 0.215-0.476 0.384-0.76 0.499s-0.588 0.171-0.894 0.166zM14.901 15.237h1.855c0.186 0.003 0.371-0.030 0.544-0.099s0.331-0.172 0.463-0.302c0.133-0.131 0.238-0.286 0.31-0.458s0.109-0.356 0.109-0.542c0-0.186-0.037-0.371-0.109-0.542s-0.178-0.327-0.31-0.458c-0.133-0.13-0.29-0.233-0.463-0.302s-0.358-0.103-0.544-0.099h-1.855v2.804z"></path>
<path fill="#fff" style="fill: var(--color1, #fff)" d="M17.346 19.859h-2.899c-0.12 0-0.236-0.048-0.321-0.133s-0.133-0.201-0.133-0.321v-3.714c0-0.12 0.048-0.236 0.133-0.321s0.201-0.133 0.321-0.133h2.899c0.613 0 1.2 0.243 1.634 0.677s0.677 1.021 0.677 1.634-0.243 1.2-0.677 1.634c-0.433 0.433-1.021 0.677-1.634 0.677v0.002zM14.901 18.951h2.445c0.372 0 0.728-0.148 0.991-0.411s0.411-0.62 0.411-0.991c0-0.372-0.148-0.729-0.411-0.991s-0.62-0.411-0.991-0.411h-2.445v2.804z"></path>
<path fill="#fff" style="fill: var(--color1, #fff)" d="M14.447 12.433h-0.663c-0.12 0-0.236-0.048-0.321-0.133s-0.133-0.201-0.133-0.321c0-0.12 0.048-0.236 0.133-0.321s0.201-0.133 0.321-0.133h0.663c0.12 0 0.236 0.048 0.321 0.133s0.133 0.201 0.133 0.321-0.048 0.236-0.133 0.321c-0.085 0.085-0.201 0.133-0.321 0.133z"></path>
<path fill="#fff" style="fill: var(--color1, #fff)" d="M14.82 12.433c-0.12 0-0.236-0.048-0.321-0.133s-0.133-0.201-0.133-0.321v-0.835c0-0.12 0.048-0.236 0.133-0.321s0.201-0.133 0.321-0.133c0.12 0 0.236 0.048 0.321 0.133s0.133 0.201 0.133 0.321v0.835c0 0.12-0.048 0.236-0.133 0.321s-0.201 0.133-0.321 0.133z"></path>
<path fill="#fff" style="fill: var(--color1, #fff)" d="M16.265 12.433c-0.12 0-0.236-0.048-0.321-0.133s-0.133-0.201-0.133-0.321v-0.835c0-0.12 0.048-0.236 0.133-0.321s0.201-0.133 0.321-0.133c0.12 0 0.236 0.048 0.321 0.133s0.133 0.201 0.133 0.321v0.835c0 0.12-0.048 0.236-0.133 0.321s-0.201 0.133-0.321 0.133z"></path>
<path fill="#fff" style="fill: var(--color1, #fff)" d="M14.82 20.693c-0.12 0-0.236-0.048-0.321-0.133s-0.133-0.201-0.133-0.321v-0.833c0-0.12 0.048-0.236 0.133-0.321s0.201-0.133 0.321-0.133c0.12 0 0.236 0.048 0.321 0.133s0.133 0.201 0.133 0.321v0.835c-0 0.12-0.049 0.235-0.134 0.32s-0.2 0.132-0.32 0.132z"></path>
<path fill="#fff" style="fill: var(--color1, #fff)" d="M16.265 20.693c-0.12 0-0.236-0.048-0.321-0.133s-0.133-0.201-0.133-0.321v-0.833c0-0.12 0.048-0.236 0.133-0.321s0.201-0.133 0.321-0.133c0.12 0 0.236 0.048 0.321 0.133s0.133 0.201 0.133 0.321v0.835c-0 0.12-0.049 0.235-0.134 0.32s-0.2 0.132-0.32 0.132z"></path>
<path fill="#fff" style="fill: var(--color1, #fff)" d="M14.447 19.86h-0.663c-0.12 0-0.236-0.048-0.321-0.133s-0.133-0.201-0.133-0.321 0.048-0.236 0.133-0.321c0.085-0.085 0.201-0.133 0.321-0.133h0.663c0.12 0 0.236 0.048 0.321 0.133s0.133 0.201 0.133 0.321-0.048 0.236-0.133 0.321c-0.085 0.085-0.201 0.133-0.321 0.133z"></path>
<path fill="#fff" style="fill: var(--color1, #fff)" d="M16 7.006c-0.12 0-0.236-0.048-0.321-0.133s-0.133-0.201-0.133-0.321v-3.149c0-0.12 0.048-0.236 0.133-0.321s0.201-0.133 0.321-0.133 0.236 0.048 0.321 0.133c0.085 0.085 0.133 0.201 0.133 0.321v3.149c0 0.12-0.048 0.236-0.133 0.321s-0.201 0.133-0.321 0.133z"></path>
<path fill="#fff" style="fill: var(--color1, #fff)" d="M16 3.857c-0.371 0-0.733-0.11-1.041-0.316s-0.548-0.499-0.69-0.841c-0.142-0.343-0.179-0.719-0.107-1.083s0.251-0.698 0.513-0.96c0.262-0.262 0.596-0.441 0.96-0.513s0.74-0.035 1.083 0.107c0.342 0.142 0.635 0.382 0.841 0.69s0.316 0.671 0.316 1.041c-0.001 0.497-0.198 0.973-0.55 1.325s-0.828 0.549-1.325 0.55zM16 1.016c-0.191 0-0.378 0.057-0.537 0.163s-0.283 0.257-0.356 0.434c-0.073 0.177-0.092 0.371-0.055 0.558s0.129 0.36 0.264 0.495c0.135 0.135 0.307 0.227 0.495 0.264s0.382 0.018 0.558-0.055 0.327-0.197 0.434-0.356c0.106-0.159 0.163-0.346 0.163-0.537-0-0.256-0.102-0.502-0.283-0.683s-0.427-0.283-0.683-0.283z"></path>
<path fill="#fff" style="fill: var(--color1, #fff)" d="M16 29.051c-0.12 0-0.236-0.048-0.321-0.133s-0.133-0.201-0.133-0.321v-3.149c0-0.12 0.048-0.236 0.133-0.321s0.201-0.133 0.321-0.133 0.236 0.048 0.321 0.133c0.085 0.085 0.133 0.201 0.133 0.321v3.149c0 0.12-0.048 0.236-0.133 0.321s-0.201 0.133-0.321 0.133z"></path>
<path fill="#fff" style="fill: var(--color1, #fff)" d="M16 31.892c-0.371 0-0.733-0.11-1.041-0.316s-0.548-0.499-0.69-0.841-0.179-0.719-0.107-1.083c0.072-0.364 0.251-0.698 0.513-0.96s0.596-0.441 0.96-0.513c0.364-0.072 0.74-0.035 1.083 0.107s0.635 0.382 0.841 0.69c0.206 0.308 0.316 0.671 0.316 1.041-0.001 0.497-0.198 0.973-0.55 1.325s-0.828 0.549-1.325 0.55zM16 29.051c-0.191 0-0.378 0.057-0.537 0.163s-0.283 0.257-0.356 0.434c-0.073 0.177-0.092 0.371-0.055 0.558s0.129 0.36 0.264 0.495c0.135 0.135 0.307 0.227 0.495 0.264s0.382 0.018 0.558-0.055 0.327-0.197 0.434-0.356c0.106-0.159 0.163-0.346 0.163-0.537-0-0.256-0.102-0.502-0.283-0.683s-0.427-0.283-0.683-0.283z"></path>
<path fill="#fff" style="fill: var(--color1, #fff)" d="M28.597 16.454h-3.149c-0.12 0-0.236-0.048-0.321-0.133s-0.133-0.201-0.133-0.321c0-0.12 0.048-0.236 0.133-0.321s0.201-0.133 0.321-0.133h3.149c0.12 0 0.236 0.048 0.321 0.133s0.133 0.201 0.133 0.321c0 0.12-0.048 0.236-0.133 0.321s-0.201 0.133-0.321 0.133z"></path>
<path fill="#fff" style="fill: var(--color1, #fff)" d="M30.017 17.874c-0.371 0-0.733-0.11-1.041-0.316s-0.548-0.499-0.69-0.841c-0.142-0.342-0.179-0.719-0.107-1.083s0.251-0.698 0.513-0.96c0.262-0.262 0.596-0.441 0.96-0.513s0.74-0.035 1.083 0.107c0.342 0.142 0.635 0.382 0.841 0.69s0.316 0.671 0.316 1.041c-0.001 0.497-0.198 0.973-0.55 1.325s-0.828 0.549-1.325 0.55zM30.017 15.034c-0.191 0-0.378 0.057-0.537 0.163s-0.283 0.257-0.356 0.434c-0.073 0.177-0.092 0.371-0.055 0.558s0.129 0.36 0.264 0.495c0.135 0.135 0.307 0.227 0.495 0.264s0.382 0.018 0.558-0.055c0.177-0.073 0.328-0.197 0.434-0.356s0.163-0.346 0.163-0.537c-0-0.256-0.102-0.502-0.283-0.683s-0.427-0.283-0.683-0.283z"></path>
<path fill="#fff" style="fill: var(--color1, #fff)" d="M6.552 16.454h-3.149c-0.12 0-0.236-0.048-0.321-0.133s-0.133-0.201-0.133-0.321c0-0.12 0.048-0.236 0.133-0.321s0.201-0.133 0.321-0.133h3.149c0.12 0 0.236 0.048 0.321 0.133s0.133 0.201 0.133 0.321c0 0.12-0.048 0.236-0.133 0.321s-0.201 0.133-0.321 0.133z"></path>
<path fill="#fff" style="fill: var(--color1, #fff)" d="M1.982 17.874c-0.371 0-0.733-0.11-1.041-0.316s-0.548-0.499-0.69-0.841-0.179-0.719-0.107-1.083c0.072-0.364 0.251-0.698 0.513-0.96s0.596-0.441 0.96-0.513 0.74-0.035 1.083 0.107c0.343 0.142 0.635 0.382 0.841 0.69s0.316 0.671 0.316 1.041c-0.001 0.497-0.198 0.973-0.55 1.325s-0.828 0.549-1.325 0.55zM1.982 15.034c-0.191 0-0.378 0.057-0.537 0.163s-0.283 0.257-0.356 0.434c-0.073 0.177-0.092 0.371-0.055 0.558s0.129 0.36 0.264 0.495c0.135 0.135 0.307 0.227 0.495 0.264s0.382 0.018 0.558-0.055c0.177-0.073 0.327-0.197 0.434-0.356s0.163-0.346 0.163-0.537c-0-0.256-0.102-0.502-0.283-0.683s-0.427-0.283-0.683-0.283z"></path>
<path fill="#fff" style="fill: var(--color1, #fff)" d="M8.145 26.955h-3.625c-0.12 0-0.236-0.048-0.321-0.133s-0.133-0.201-0.133-0.321c0-0.12 0.048-0.236 0.133-0.321s0.201-0.133 0.321-0.133h3.375l1.816-2.913c0.064-0.102 0.165-0.175 0.283-0.203s0.241-0.007 0.343 0.057c0.102 0.064 0.175 0.165 0.203 0.283s0.007 0.241-0.057 0.343l-1.949 3.127c-0.041 0.066-0.098 0.12-0.167 0.158s-0.145 0.057-0.222 0.056z"></path>
<path fill="#fff" style="fill: var(--color1, #fff)" d="M3.1 28.376c-0.371-0-0.733-0.11-1.041-0.316s-0.548-0.499-0.69-0.841c-0.142-0.342-0.179-0.719-0.106-1.083s0.251-0.698 0.513-0.96c0.262-0.262 0.596-0.441 0.96-0.513s0.74-0.035 1.083 0.107c0.342 0.142 0.635 0.382 0.841 0.69s0.316 0.671 0.316 1.041c-0 0.497-0.198 0.974-0.55 1.325s-0.828 0.549-1.325 0.549zM3.1 25.535c-0.191 0-0.378 0.057-0.537 0.163s-0.283 0.257-0.356 0.434c-0.073 0.177-0.092 0.371-0.055 0.558s0.129 0.36 0.265 0.495c0.135 0.135 0.307 0.227 0.495 0.264s0.382 0.018 0.558-0.055 0.327-0.197 0.434-0.356c0.106-0.159 0.163-0.346 0.163-0.537-0-0.256-0.102-0.502-0.283-0.683s-0.427-0.283-0.683-0.283z"></path>
<path fill="#fff" style="fill: var(--color1, #fff)" d="M10.097 9.080c-0.077 0-0.153-0.020-0.221-0.057s-0.124-0.091-0.165-0.157l-1.816-2.913h-3.375c-0.12 0-0.236-0.048-0.321-0.133s-0.133-0.201-0.133-0.321c0-0.12 0.048-0.236 0.133-0.321s0.201-0.133 0.321-0.133h3.625c0.077-0 0.153 0.020 0.22 0.057s0.124 0.091 0.165 0.157l1.949 3.127c0.043 0.069 0.066 0.147 0.069 0.228s-0.017 0.16-0.056 0.231-0.096 0.13-0.165 0.171c-0.069 0.041-0.148 0.063-0.229 0.064z"></path>
<path fill="#fff" style="fill: var(--color1, #fff)" d="M3.1 7.373c-0.371-0-0.733-0.11-1.041-0.316s-0.548-0.499-0.69-0.841c-0.142-0.343-0.179-0.719-0.106-1.083s0.251-0.697 0.513-0.96c0.262-0.262 0.596-0.441 0.96-0.513s0.74-0.035 1.083 0.107c0.342 0.142 0.635 0.382 0.841 0.69s0.316 0.671 0.316 1.041c-0 0.497-0.198 0.974-0.55 1.325s-0.828 0.549-1.325 0.549zM3.1 4.532c-0.191 0-0.378 0.057-0.537 0.163s-0.283 0.257-0.356 0.434c-0.073 0.177-0.092 0.371-0.055 0.558s0.129 0.36 0.265 0.495c0.135 0.135 0.307 0.227 0.495 0.264s0.382 0.018 0.558-0.055c0.177-0.073 0.327-0.197 0.434-0.356s0.163-0.346 0.163-0.537c-0-0.256-0.102-0.502-0.283-0.683s-0.427-0.283-0.683-0.283z"></path>
<path fill="#fff" style="fill: var(--color1, #fff)" d="M27.48 26.955h-3.625c-0.077 0-0.153-0.020-0.22-0.057s-0.124-0.091-0.165-0.157l-1.951-3.127c-0.064-0.102-0.084-0.226-0.057-0.343s0.1-0.219 0.203-0.283c0.102-0.064 0.226-0.084 0.343-0.057s0.219 0.1 0.283 0.202l1.816 2.913h3.375c0.12 0 0.236 0.048 0.321 0.133s0.133 0.201 0.133 0.321-0.048 0.236-0.133 0.321c-0.085 0.085-0.201 0.133-0.321 0.133h-0.002z"></path>
<path fill="#fff" style="fill: var(--color1, #fff)" d="M28.9 28.376c-0.371 0-0.733-0.11-1.041-0.316s-0.548-0.499-0.69-0.841c-0.142-0.342-0.179-0.719-0.107-1.083s0.251-0.698 0.513-0.96c0.262-0.262 0.596-0.441 0.96-0.513s0.74-0.035 1.083 0.107c0.342 0.142 0.635 0.382 0.841 0.69s0.316 0.671 0.316 1.041c-0.001 0.497-0.198 0.973-0.55 1.325s-0.828 0.549-1.325 0.55zM28.9 25.535c-0.191 0-0.378 0.057-0.537 0.163s-0.283 0.257-0.356 0.434-0.092 0.371-0.055 0.558c0.037 0.187 0.129 0.36 0.264 0.495s0.307 0.227 0.495 0.264c0.187 0.037 0.382 0.018 0.558-0.055s0.327-0.197 0.434-0.356c0.106-0.159 0.163-0.346 0.163-0.537-0-0.256-0.102-0.502-0.283-0.683s-0.427-0.283-0.683-0.283z"></path>
<path fill="#fff" style="fill: var(--color1, #fff)" d="M21.903 9.080c-0.081-0-0.16-0.022-0.23-0.063s-0.127-0.1-0.167-0.171c-0.039-0.071-0.059-0.151-0.057-0.232s0.026-0.16 0.069-0.229l1.949-3.127c0.041-0.065 0.098-0.119 0.165-0.157s0.143-0.057 0.22-0.057h3.627c0.12 0 0.236 0.048 0.321 0.133s0.133 0.201 0.133 0.321-0.048 0.236-0.133 0.321c-0.085 0.085-0.201 0.133-0.321 0.133h-3.374l-1.816 2.913c-0.041 0.066-0.098 0.12-0.165 0.157s-0.144 0.057-0.221 0.057z"></path>
<path fill="#fff" style="fill: var(--color1, #fff)" d="M28.9 7.373c-0.371 0-0.733-0.11-1.041-0.316s-0.548-0.499-0.69-0.841c-0.142-0.343-0.179-0.719-0.107-1.083s0.251-0.698 0.513-0.96c0.262-0.262 0.596-0.441 0.96-0.513s0.74-0.035 1.083 0.107c0.342 0.142 0.635 0.382 0.841 0.69s0.316 0.671 0.316 1.041c-0.001 0.497-0.198 0.973-0.55 1.325s-0.828 0.549-1.325 0.55zM28.9 4.532c-0.191 0-0.378 0.057-0.537 0.163s-0.283 0.257-0.356 0.434-0.092 0.371-0.055 0.558c0.037 0.187 0.129 0.36 0.264 0.495s0.307 0.227 0.495 0.264c0.187 0.037 0.382 0.018 0.558-0.055s0.327-0.197 0.434-0.356c0.106-0.159 0.163-0.346 0.163-0.537-0-0.256-0.102-0.502-0.283-0.683s-0.427-0.283-0.683-0.283z"></path>
</symbol>

<symbol id="smart" viewBox="0 0 33 32">
<path fill="#fff" style="fill: var(--color1, #fff)" d="M20.485 26.57c0.838 0 1.52-0.682 1.52-1.52s-0.682-1.52-1.52-1.52c-0.66 0-1.217 0.425-1.427 1.013h-2.12v-3.039h2.12c0.21 0.588 0.767 1.013 1.427 1.013 0.838 0 1.52-0.682 1.52-1.52s-0.682-1.52-1.52-1.52c-0.66 0-1.217 0.425-1.427 1.013h-2.12v-3.039h2.12c0.21 0.588 0.767 1.013 1.427 1.013 0.838 0 1.52-0.682 1.52-1.52s-0.682-1.52-1.52-1.52c-0.66 0-1.217 0.425-1.427 1.013h-2.12v-1.013h-1.013v-2.12c0.588-0.21 1.013-0.767 1.013-1.427 0-0.838-0.682-1.52-1.52-1.52s-1.52 0.682-1.52 1.52c0 0.66 0.425 1.217 1.013 1.427v2.12h-3.040v-2.12c0.588-0.21 1.013-0.767 1.013-1.427 0-0.838-0.682-1.52-1.52-1.52s-1.52 0.682-1.52 1.52c0 0.66 0.425 1.217 1.013 1.427v2.12h-3.040v-2.12c0.588-0.21 1.013-0.767 1.013-1.427 0-0.838-0.682-1.52-1.52-1.52s-1.52 0.682-1.52 1.52c0 0.66 0.425 1.217 1.013 1.427v2.12h-1.013v1.013h-2.12c-0.21-0.588-0.767-1.013-1.427-1.013-0.838 0-1.52 0.682-1.52 1.52s0.682 1.52 1.52 1.52c0.66 0 1.217-0.425 1.427-1.013h2.12v3.039h-2.12c-0.21-0.588-0.767-1.013-1.427-1.013-0.838 0-1.52 0.682-1.52 1.52s0.682 1.52 1.52 1.52c0.66 0 1.217-0.425 1.427-1.013h2.12v3.039h-2.12c-0.21-0.588-0.767-1.013-1.427-1.013-0.838 0-1.52 0.682-1.52 1.52s0.682 1.52 1.52 1.52c0.66 0 1.217-0.425 1.427-1.013h2.12v1.013h1.013v2.12c-0.588 0.21-1.013 0.767-1.013 1.427 0 0.838 0.682 1.52 1.52 1.52s1.52-0.682 1.52-1.52c0-0.66-0.425-1.217-1.013-1.427v-2.12h3.040v2.12c-0.588 0.21-1.013 0.767-1.013 1.427 0 0.838 0.682 1.52 1.52 1.52s1.52-0.682 1.52-1.52c0-0.66-0.425-1.217-1.013-1.427v-2.12h3.040v2.12c-0.588 0.21-1.013 0.767-1.013 1.427 0 0.838 0.682 1.52 1.52 1.52s1.52-0.682 1.52-1.52c0-0.66-0.425-1.217-1.013-1.427v-2.12h1.013v-1.013h2.12c0.21 0.588 0.767 1.013 1.427 1.013zM20.485 24.544c0.28 0 0.507 0.227 0.507 0.507s-0.227 0.507-0.507 0.507c-0.28 0-0.507-0.227-0.507-0.507s0.227-0.507 0.507-0.507zM20.485 20.491c0.28 0 0.507 0.227 0.507 0.507s-0.227 0.507-0.507 0.507-0.507-0.227-0.507-0.507c0-0.28 0.227-0.507 0.507-0.507zM20.485 16.438c0.28 0 0.507 0.227 0.507 0.507s-0.227 0.507-0.507 0.507-0.507-0.227-0.507-0.507c0-0.28 0.227-0.507 0.507-0.507zM2.248 17.451c-0.28 0-0.507-0.227-0.507-0.507s0.227-0.507 0.507-0.507 0.507 0.227 0.507 0.507c0 0.28-0.227 0.507-0.507 0.507zM2.248 21.504c-0.28 0-0.507-0.227-0.507-0.507s0.227-0.507 0.507-0.507 0.507 0.227 0.507 0.507c0 0.28-0.227 0.507-0.507 0.507zM2.248 25.557c-0.28 0-0.507-0.227-0.507-0.507s0.227-0.507 0.507-0.507c0.28 0 0.507 0.227 0.507 0.507s-0.227 0.507-0.507 0.507zM15.419 11.372c0.28 0 0.507 0.227 0.507 0.507s-0.227 0.507-0.507 0.507-0.507-0.227-0.507-0.507c0-0.279 0.227-0.507 0.507-0.507zM11.367 11.372c0.28 0 0.507 0.227 0.507 0.507s-0.227 0.507-0.507 0.507-0.507-0.227-0.507-0.507c0-0.279 0.227-0.507 0.507-0.507zM7.314 11.372c0.28 0 0.507 0.227 0.507 0.507s-0.227 0.507-0.507 0.507-0.507-0.227-0.507-0.507c0-0.279 0.227-0.507 0.507-0.507zM7.314 30.623c-0.28 0-0.507-0.227-0.507-0.507s0.227-0.507 0.507-0.507 0.507 0.227 0.507 0.507c0 0.28-0.227 0.507-0.507 0.507zM11.367 30.623c-0.28 0-0.507-0.227-0.507-0.507s0.227-0.507 0.507-0.507 0.507 0.227 0.507 0.507c0 0.28-0.227 0.507-0.507 0.507zM15.419 30.623c-0.28 0-0.507-0.227-0.507-0.507s0.227-0.507 0.507-0.507 0.507 0.227 0.507 0.507c0 0.28-0.227 0.507-0.507 0.507zM15.926 25.557h-9.119v-9.119h9.119v9.119z"></path>
<path fill="#fff" style="fill: var(--color1, #fff)" d="M29.854 8.332v0.001c-0.189-0.733-0.48-1.433-0.868-2.089l1.615-1.616-2.866-2.865-1.616 1.616c-0.657-0.389-1.356-0.68-2.089-0.869v-2.282h-4.053v2.282c-0.732 0.189-1.432 0.48-2.089 0.868l-1.616-1.616-2.866 2.865 1.615 1.616c-0.389 0.657-0.679 1.357-0.868 2.089h-1.776v1.013h2.593l0.082-0.406c0.18-0.887 0.528-1.724 1.034-2.49l0.229-0.345-1.478-1.478 1.433-1.433 1.478 1.478 0.345-0.228c0.765-0.507 1.602-0.855 2.49-1.034l0.406-0.082v-2.087h2.026v2.087l0.406 0.083c0.888 0.18 1.725 0.528 2.49 1.034l0.345 0.228 1.478-1.478 1.433 1.433-1.478 1.478 0.229 0.345c0.507 0.765 0.855 1.603 1.034 2.49l0.083 0.406h2.086v2.026h-2.086l-0.083 0.406c-0.18 0.887-0.528 1.724-1.034 2.489l-0.229 0.345 1.478 1.478-1.433 1.433-1.478-1.478-0.345 0.228c-0.765 0.507-1.603 0.855-2.49 1.034l-0.406 0.083v2.593h1.013v-1.776c0.732-0.188 1.432-0.479 2.089-0.868l1.616 1.615 2.866-2.866-1.615-1.616c0.389-0.657 0.679-1.357 0.868-2.089h2.282v-4.053h-2.282z"></path>
<path fill="#fff" style="fill: var(--color1, #fff)" d="M22.005 14.412v1.013c2.793 0 5.066-2.273 5.066-5.066s-2.273-5.066-5.066-5.066c-2.793 0-5.066 2.273-5.066 5.066h1.013c0-2.235 1.818-4.053 4.053-4.053s4.053 1.818 4.053 4.053c0 2.235-1.818 4.053-4.053 4.053z"></path>
<path fill="#fff" style="fill: var(--color1, #fff)" d="M14.913 17.451h-7.092v1.013h7.092v-1.013z"></path>
<path fill="#fff" style="fill: var(--color1, #fff)" d="M14.913 23.531h-1.013v1.013h1.013v-1.013z"></path>
<path fill="#fff" style="fill: var(--color1, #fff)" d="M12.886 23.531h-5.066v1.013h5.066v-1.013z"></path>
<path fill="#fff" style="fill: var(--color1, #fff)" d="M19.371 30.328l0.202 0.993c6.185-1.256 10.993-6.064 12.249-12.249l-0.993-0.202c-1.174 5.786-5.671 10.284-11.457 11.457z"></path>
<path fill="#fff" style="fill: var(--color1, #fff)" d="M13.494 1.535l-0.202-0.993c-6.185 1.256-10.993 6.064-12.249 12.249l0.993 0.201c1.174-5.785 5.671-10.283 11.457-11.457z"></path>
</symbol>

<symbol id="analyzer" viewBox="0 0 32 32">
<path fill="#fff" style="fill: var(--color1, #fff)" d="M31.363 29.186h-27.541l3.476-3.882c0.305 0.162 0.653 0.255 1.022 0.255 0.849 0 1.586-0.488 1.949-1.199l3.551 0.9c0.094 1.125 1.036 2.013 2.181 2.013 1.207 0 2.189-0.986 2.189-2.198 0-0.668-0.299-1.267-0.769-1.671l2.896-6.948 2.062 5.279c-0.493 0.403-0.808 1.017-0.808 1.704 0 1.212 0.982 2.198 2.189 2.198s2.189-0.986 2.189-2.198c0-0.248-0.042-0.486-0.117-0.708l2.53-2.54c0.249-0.25 0.249-0.655 0-0.905s-0.653-0.25-0.901 0l-2.386 2.396c-0.366-0.277-0.821-0.441-1.314-0.441-0.068 0-0.134 0.003-0.201 0.010l-2.536-6.491 2.547-6.112c0.062 0.005 0.125 0.009 0.189 0.009 1.014 0 1.868-0.695 2.116-1.636h4.013c0.352 0 0.637-0.287 0.637-0.64s-0.285-0.64-0.637-0.64h-4.061c-0.297-0.86-1.112-1.48-2.069-1.48-1.207 0-2.189 0.986-2.189 2.198 0 0.691 0.32 1.308 0.818 1.711l-2.033 4.878-2.97-7.603c0.446-0.403 0.727-0.986 0.727-1.635 0-1.212-0.982-2.198-2.189-2.198s-2.189 0.986-2.189 2.198c0 0.524 0.184 1.006 0.49 1.384l-5.255 7.993c-0.228-0.081-0.473-0.125-0.728-0.125-0.262 0-0.512 0.046-0.745 0.131l-4.514-5.963v-6.536c0-0.353-0.285-0.64-0.637-0.64s-0.637 0.287-0.637 0.64v6.293h-1.069c-0.352-0-0.637 0.287-0.637 0.64s0.285 0.64 0.637 0.64h1.069v6.431h-1.069c-0.352 0-0.637 0.287-0.637 0.64s0.285 0.64 0.637 0.64h1.069v6.587h-1.069c-0.352 0-0.637 0.286-0.637 0.64s0.285 0.64 0.637 0.64h1.069v5.981c0 0.353 0.285 0.64 0.637 0.64h5.492v0.84c0 0.353 0.285 0.64 0.637 0.64s0.637-0.287 0.637-0.64v-0.84h6.406v0.84c0 0.353 0.285 0.64 0.637 0.64s0.637-0.287 0.637-0.64v-0.84h6.562v0.84c0 0.353 0.285 0.64 0.637 0.64s0.637-0.287 0.637-0.64v-0.84h6.733c0.352 0 0.637-0.287 0.637-0.64s-0.285-0.64-0.637-0.64zM23.759 22.521c0.504 0 0.914 0.412 0.914 0.918s-0.41 0.918-0.914 0.918-0.914-0.412-0.914-0.918c0-0.506 0.41-0.918 0.914-0.918zM23.759 5.54c0.504 0 0.914 0.412 0.914 0.918s-0.41 0.918-0.914 0.918c-0.504 0-0.914-0.412-0.914-0.918s0.41-0.918 0.914-0.918zM8.319 24.279c-0.504 0-0.914-0.412-0.914-0.918s0.41-0.918 0.914-0.918 0.914 0.412 0.914 0.918c-0 0.506-0.41 0.918-0.914 0.918zM16 25.992c-0.504 0-0.914-0.412-0.914-0.918s0.41-0.918 0.914-0.918c0.504 0 0.914 0.412 0.914 0.918s-0.41 0.918-0.914 0.918zM15.922 2.892c0.504 0 0.914 0.412 0.914 0.918s-0.41 0.918-0.914 0.918c-0.504 0-0.914-0.412-0.914-0.918s0.41-0.918 0.914-0.918zM8.241 14.342c0.504 0 0.914 0.412 0.914 0.918s-0.41 0.918-0.914 0.918-0.914-0.412-0.914-0.918c0-0.506 0.41-0.918 0.914-0.918zM2.982 9.346l3.494 4.616c-0.266 0.364-0.424 0.813-0.424 1.298 0 1.212 0.982 2.198 2.189 2.198s2.189-0.986 2.189-2.198c0-0.491-0.162-0.946-0.434-1.312l5.284-8.037c0.203 0.063 0.419 0.097 0.642 0.097 0.103 0 0.205-0.008 0.304-0.022l3.421 8.758-3.396 8.148c-0.083-0.010-0.166-0.015-0.251-0.015-0.822 0-1.539 0.457-1.913 1.131l-3.596-0.912c-0.131-1.087-1.055-1.933-2.173-1.933-1.207 0-2.189 0.986-2.189 2.198 0 0.376 0.095 0.73 0.261 1.040l-3.409 3.808v-18.863z"></path>
<path fill="#fff" style="fill: var(--color1, #fff)" d="M30.533 17.027c-0.249-0.25-0.653-0.25-0.902 0l-0.504 0.506c-0.249 0.25-0.249 0.655 0 0.905 0.124 0.125 0.288 0.187 0.451 0.187s0.326-0.062 0.451-0.187l0.504-0.506c0.249-0.25 0.249-0.655 0-0.905z"></path>
</symbol>

<symbol id="module" viewBox="0 0 32 32">
<path fill="#fff" style="fill: var(--color1, #fff)" d="M18.095 5.664c-1.531-1.58-3.567-2.451-5.732-2.451s-4.201 0.87-5.732 2.451c-3.16 3.262-3.16 8.571 0 11.833 1.531 1.58 3.567 2.451 5.732 2.451s4.201-0.87 5.732-2.451c1.531-1.58 2.374-3.682 2.374-5.917s-0.843-4.336-2.374-5.917zM7.285 6.338c1.357-1.4 3.16-2.172 5.079-2.172s3.722 0.771 5.079 2.172c1.071 1.105 1.761 2.498 2.005 4.010l-2.516 2.54c-0.238-0.139-0.513-0.218-0.806-0.218-0.57 0-1.072 0.3-1.368 0.756l-3.698-1.198c0-0.011 0.001-0.022 0.001-0.033 0-0.936-0.738-1.698-1.645-1.698s-1.645 0.762-1.645 1.698c0 0.306 0.079 0.593 0.217 0.842l-1.94 2.076c-1.472-2.81-1.060-6.402 1.237-8.774zM16.848 14.367c0 0.411-0.324 0.745-0.722 0.745s-0.722-0.334-0.722-0.745c0-0.411 0.324-0.745 0.722-0.745s0.722 0.334 0.722 0.745zM10.138 12.194c0 0.411-0.324 0.745-0.722 0.745s-0.722-0.334-0.722-0.745c0-0.411 0.324-0.745 0.722-0.745s0.722 0.334 0.722 0.745zM17.443 16.824c-1.357 1.4-3.16 2.172-5.079 2.172s-3.722-0.771-5.079-2.172c-0.269-0.278-0.513-0.573-0.73-0.882l2.098-2.245c0.228 0.124 0.488 0.195 0.764 0.195 0.57 0 1.072-0.3 1.368-0.756l3.698 1.198c-0 0.011-0.001 0.022-0.001 0.033 0 0.936 0.738 1.698 1.645 1.698s1.645-0.762 1.645-1.698c0-0.289-0.070-0.56-0.194-0.799l1.969-1.988c-0 1.98-0.747 3.842-2.104 5.243z"></path>
<path fill="#fff" style="fill: var(--color1, #fff)" d="M8.276 6.72l0.606 0.719c1.431-1.284 3.438-1.68 5.238-1.033l0.304-0.9c-2.111-0.759-4.467-0.294-6.147 1.214z"></path>
<path fill="#fff" style="fill: var(--color1, #fff)" d="M15.608 6.083l-0.48 0.814c0.244 0.154 0.479 0.33 0.697 0.523l0.602-0.723c-0.256-0.227-0.532-0.434-0.819-0.615z"></path>
<path fill="#fff" style="fill: var(--color1, #fff)" d="M13.468 16.943c-1.039 0.226-2.106 0.131-3.087-0.275l-0.343 0.885c0.744 0.308 1.53 0.463 2.322 0.463 0.433 0 0.869-0.047 1.299-0.14l-0.19-0.933z"></path>
<path fill="#fff" style="fill: var(--color1, #fff)" d="M23.927 19.236l-0.67 0.692-1.663-1.835c1.968-2.97 2.442-6.685 1.421-10.014l1.319-1.332c0.232 0.129 0.497 0.203 0.779 0.203 0.907 0 1.645-0.762 1.645-1.698 0-0.277-0.065-0.539-0.18-0.771l2.832-2.859v1.478h0.923v-3.087h-2.99v0.953h1.396l-2.795 2.821c-0.244-0.148-0.529-0.234-0.832-0.234-0.907 0-1.645 0.762-1.645 1.698 0 0.3 0.076 0.581 0.208 0.826l-1.011 1.021c-0.544-1.338-1.343-2.591-2.397-3.679-4.359-4.5-11.452-4.5-15.811 0-3.883 4.008-4.307 10.256-1.272 14.753l-0.777 0.832c-0.228-0.124-0.488-0.195-0.764-0.195-0.907-0-1.645 0.762-1.645 1.698s0.738 1.698 1.645 1.698c0.907 0 1.645-0.762 1.645-1.698 0-0.306-0.079-0.593-0.217-0.842l0.679-0.727c0.221 0.275 0.456 0.543 0.706 0.801 2.18 2.25 5.043 3.375 7.906 3.375 2.198 0 4.395-0.664 6.284-1.99l1.667 1.839-0.693 0.715 8.073 8.304 4.306-4.445-8.073-8.304zM25.114 4.508c0.398 0 0.722 0.334 0.722 0.745s-0.324 0.745-0.722 0.745c-0.398 0-0.722-0.334-0.722-0.745s0.324-0.745 0.722-0.745zM1.645 21.254c-0.398 0-0.722-0.334-0.722-0.745s0.324-0.745 0.722-0.745c0.398 0 0.722 0.334 0.722 0.745s-0.324 0.745-0.722 0.745zM5.111 19.068c-3.999-4.128-3.999-10.845 0-14.974 2-2.064 4.626-3.096 7.253-3.096s5.253 1.032 7.253 3.096c3.999 4.128 3.999 10.845 0 14.974s-10.506 4.128-14.506 0zM19.394 20.555c0.302-0.253 0.595-0.524 0.876-0.814 0.271-0.28 0.526-0.571 0.764-0.872l1.571 1.733-1.636 1.689-1.574-1.737zM27.693 30.639l-6.765-6.959 3-3.097 6.765 6.959-3 3.097z"></path>
<path fill="#fff" style="fill: var(--color1, #fff)" d="M23.928 21.966l-1.321 1.364 0.653 0.674 0.668-0.69 2.548 2.63 0.653-0.674-3.201-3.304z"></path>
<path fill="#fff" style="fill: var(--color1, #fff)" d="M27.922 26.084l-0.653 0.677 0.681 0.706 0.653-0.677-0.681-0.706z"></path>
<path fill="#fff" style="fill: var(--color1, #fff)" d="M5.925 23.604h-0.923v1.038h0.923v-1.038z"></path>
<path fill="#fff" style="fill: var(--color1, #fff)" d="M5.925 29.424h-0.923v1.038h0.923v-1.038z"></path>
<path fill="#fff" style="fill: var(--color1, #fff)" d="M13.528 25.607h-0.923v1.038h0.923v-1.038z"></path>
<path fill="#fff" style="fill: var(--color1, #fff)" d="M26.759 17.036h-0.923v1.038h0.923v-1.038z"></path>
<path fill="#fff" style="fill: var(--color1, #fff)" d="M27.806 8.767h-0.923v1.038h0.923v-1.038z"></path>
<path fill="#fff" style="fill: var(--color1, #fff)" d="M30.865 13.145h-0.923v1.038h0.923v-1.038z"></path>
</symbol>

<symbol id="play" viewBox="0 0 32 32">
<path fill="#fff" style="fill: var(--color1, #fff)" d="M16 0c8.837 0 16 7.163 16 16s-7.163 16-16 16c-8.837 0-16-7.163-16-16s7.163-16 16-16zM16 3.2c-3.395 0-6.651 1.349-9.051 3.749s-3.749 5.656-3.749 9.051c0 3.395 1.349 6.65 3.749 9.051s5.656 3.749 9.051 3.749 6.65-1.349 9.051-3.749c2.4-2.401 3.749-5.656 3.749-9.051s-1.349-6.651-3.749-9.051c-2.401-2.4-5.656-3.749-9.051-3.749zM13.606 8.218l9.6 6.4c0.226 0.132 0.417 0.317 0.555 0.54s0.219 0.476 0.237 0.737c0.017 0.261-0.030 0.523-0.137 0.762s-0.271 0.448-0.478 0.608l-9.776 6.518c-0.243 0.142-0.519 0.217-0.801 0.218s-0.558-0.072-0.802-0.213c-0.244-0.14-0.447-0.342-0.588-0.586s-0.215-0.52-0.215-0.802v-12.8c-0-0.282 0.074-0.558 0.215-0.802s0.344-0.446 0.588-0.586c0.244-0.14 0.521-0.214 0.802-0.213s0.558 0.076 0.801 0.218z"></path>
</symbol>
<symbol id="arrow-right" viewBox="0 0 32 32">
<path fill="#fff" style="fill: var(--color1, #fff)" d="M17.495 8.391c-0.25 0.25-0.39 0.589-0.39 0.943s0.14 0.693 0.39 0.943l4.389 4.391-13.884 0.009c-0.354 0-0.693 0.141-0.943 0.391s-0.391 0.589-0.391 0.943 0.14 0.693 0.391 0.943c0.25 0.25 0.589 0.391 0.943 0.391l13.885-0.009-4.391 4.391c-0.127 0.123-0.229 0.27-0.299 0.433s-0.107 0.338-0.108 0.515c-0.001 0.177 0.032 0.353 0.099 0.517s0.166 0.313 0.291 0.438c0.125 0.125 0.274 0.224 0.438 0.291s0.339 0.101 0.517 0.099c0.177-0.002 0.352-0.038 0.515-0.108s0.31-0.171 0.433-0.299l4.781-4.78c0.371-0.371 0.666-0.812 0.867-1.298s0.305-1.006 0.305-1.531-0.104-1.045-0.305-1.531c-0.201-0.485-0.496-0.926-0.867-1.298l-4.781-4.781c-0.25-0.25-0.589-0.39-0.943-0.39s-0.693 0.14-0.943 0.39z"></path>
</symbol>
<symbol fill="none" xmlns="http://www.w3.org/2000/svg" viewBox="0 0 15 15" id="tg">
    <path d="M9 14.6667C8.74867 14.6667 8.51667 14.5247 8.40333 14.298L6.42467 10.3407C6.316 10.1233 6.33467 9.86334 6.47267 9.66268L9.66667 5.33334L5.33667 8.52668C5.136 8.66534 4.876 8.68268 4.65867 8.57468L0.702001 6.59668C0.464668 6.47734 0.320001 6.22868 0.334668 5.96334C0.348668 5.69801 0.520001 5.46601 0.769334 5.37468L13.436 0.708009C13.6793 0.619342 13.9533 0.677342 14.138 0.862009C14.322 1.04534 14.382 1.32001 14.292 1.56401L9.62533 14.2307C9.53333 14.48 9.302 14.6513 9.03667 14.6653C9.02467 14.666 9.012 14.6667 9 14.6667Z" fill="white"></path>
  </symbol>

  </defs>
</svg>